<svg width="274" height="59" viewBox="0 0 274 59" xmlns="http://www.w3.org/2000/svg" xmlns:xlink="http://www.w3.org/1999/xlink"><title>logo eng vertical</title><defs><path id="a" d="M218 18V0H0v18h218z"/></defs><g fill="none" fill-rule="evenodd"><path d="M30.363 4.727c-2.696 2.985-4.056 7.202-4.056 12.563 0 .886.04 1.805.113 2.756h-.843c.073-.951.115-1.87.115-2.756 0-5.361-1.362-9.578-4.06-12.563-4.076-4.51-9.66-4.456-9.898-4.45l-1.116.022v22.336h1.824v8.153h2.276V20.34h-1.825V2.663c1.627.225 4.706.99 7.081 3.635 2.291 2.55 3.443 6.234 3.443 10.986 0 1.19-.071 2.457-.22 3.785l-.139 1.273h5.881l-.141-1.273a34.833 34.833 0 0 1-.219-3.785c0-4.752 1.153-8.436 3.444-10.986 2.375-2.644 5.455-3.41 7.08-3.635V20.34h-1.824v26.905h2.278v-24.61h1.82V.299L40.26.277c-.233-.006-5.82-.06-9.897 4.45" fill="#FF3C3C"/><path d="M26.771 34.97a40.475 40.475 0 0 0-1.262-.844h-7.284c-.095-.03-.19-.062-.285-.09a86.236 86.236 0 0 0-2.478-.762c.07-.273.392-.887.392-.887.158-.05 1.344.752 3.235.77 2.475.02 4.162-.739 5.204-.716 2.17.054 4.2 1.84 4.65 3.012-.795.517-1.448.032-2.172-.483zm-1.987 1.58a93.139 93.139 0 0 0-2.764-1.086c.001-.305.014-.727.151-.727.152 0 2.68.05 2.68.05s-.018 1.17-.067 1.762zm-13.297-4.27c.3-.402.57-.74.699-.854.341-.036 1.834-.04 3.82-.027-.046.125-.11.229-.204.277-.256.128-.743 1.002-1.026 1.409a52.532 52.532 0 0 0-3.289-.804zm5.073-.808l.01-.068c1.786.015 3.892.038 5.904.07v.665c-2.274.557-4.8.557-6.038-.16.227-.166 0-.377.124-.507zm6.828.012l2.048.037c.26.163.56.395.88.715 0 0-1.264-.408-2.983-.358.022-.108.035-.259.055-.394zm13.743 11.14l-6.823-5.209.1-.536s2.984 2.3 3.184 2.504c.204.203.608-.41.51-.51-.103-.102-4.703-4.087-4.703-4.087-.152-.76-2.622-3.61-3.786-4.027v-.002c-.028 0-2.686-.045-5.618-.084l.305-.028c-.108-1.213-.058-3.455-.022-4.937l.024-1.306h-.758l-.025 1.285c-.035 1.481-.086 3.714.021 4.982a47.41 47.41 0 0 0-.598-.007c-6.802-.078-6.94-.01-7.074.059-.248.126-.74.748-1.204 1.39-4.197-.81-7.546-.826-10-.046l-.527.17v.563c0 .543.236.876.382 1.077.032.05.069.102.085.134 2.02 4.038 6.1 9.808 6.952 10.998-.214-.948.88-.547.88-.547.258-.208-.662-1.236-.402-1.417-.893-1.28-2.323-3.37-3.665-5.516 4.65.155 7.698 1.259 9.473 2.198.59.31 1.08.623 1.48.91.411-.014.824-.01 1.232.005a12.33 12.33 0 0 0-2.305-1.565c-1.916-1.023-5.245-2.234-10.362-2.33-.726-1.193-1.405-2.377-1.93-3.429-.002-.002-.006-.007-.006-.01 8.58-1.873 25.593 6.097 25.768 6.183l.645-1.389c-.024-.009-1.11-.52-2.855-1.252v-1.856c1.314.461 4.596 3.116 4.596 3.116 0 .663-.858 1.122-.858 1.122 4.245.715 7.28 3.52 7.28 3.52s-.518 1-.777 1.372c-1.931-1.23-4.883-2.596-6.627-3.402-.486-.226-.87-.405-1.07-.505l-.34.68c.21.111.601.293 1.096.522 1.978.914 6.092 2.82 7.64 4.142l.49-.583a9.236 9.236 0 0 0-.788-.595l.98-1.757zM22.09 40.746c1.377.166 3.142.678 3.65.834l.155-.513c-.519-.155-2.32-.685-3.745-.854l-.06.533zm-2.517-3.14c-.83-.182-1.543-.337-2.05-.48l-.204.735c.527.153 1.251.31 2.092.492 2.172.476 5.142 1.126 7.082 2.159l.354-.676c-2.031-1.083-5.06-1.746-7.274-2.23zm7.218 3.66l-.242.724 1.831.61c2.324.769 3.729 1.23 6.512 2.88l.384-.66c-2.856-1.695-4.372-2.19-6.662-2.946l-1.823-.608z" fill="#899097"/><path d="M9.132 49.927s3.606 4.47 3.9 4.47C13.324 54.398 22.2 52 22.2 52l7.92 1.044 7.315-.819 3.451-2.692s1.082-3.071.688-3.071c-.394 0-6.58 1.424-6.58 1.424s-5.644-.45-5.923-.45c-.28 0-7.272-3.57-7.738-3.57-.465 0-6.674-.083-7.254-.083-.58 0-3.863 2.566-3.863 2.566s-.347 1.631-.716 1.937c-.369.306-.369 1.64-.369 1.64z" fill="#FFF"/><path d="M29.822 54.306c3.973.412 8-.007 12.737-5.396.467-1.236.292-4.169.292-4.169-8.374 3.854-13.493 1.514-16.673-1.132-4.9-2.784-12.681-5.022-18.92.016 0 0 .383 1.985 1.62 6.736 4.585-4.002 8.467-5.672 15.137-3.222 3.41 1.303 5.836 3.827 16.627.896-5.71 5.382-9.348 4.39-13.16 3.066-4.4-.912-10.12-1.262-14.958 3.617 3.987.997 5.274 3.064 6.546 3.691 3.607-2.63 6.159-4.839 10.752-4.103" fill="#5FB1E2"/><g transform="translate(56 19.505)"><mask id="b" fill="#fff"><use xlink:href="#a"/></mask><path d="M10.58 13.71L4.966.413H1V17.58h2.45V3.56l5.427 12.864h2.765l5.61-12.853v14.008h2.695V.414h-3.571L10.58 13.71zM71.476 2.237h7.182v15.341h2.873V2.238h7.18V.414H71.474v1.824zm-10.292 5.73l-1.445-.698c-1.257-.606-2.123-1.132-2.596-1.576-.475-.44-.71-.94-.71-1.512 0-.683.32-1.24.968-1.693.649-.446 1.466-.67 2.461-.67 1.045 0 2.633.36 4.763 1.083V.662C62.89.22 61.248 0 59.684 0c-1.749 0-3.192.426-4.323 1.275-1.132.859-1.697 1.95-1.697 3.275 0 .975.354 1.828 1.06 2.57.707.736 1.92 1.518 3.65 2.355l1.397.683c1.214.584 2.044 1.107 2.497 1.576.452.465.676 1.04.676 1.71 0 .813-.345 1.473-1.033 1.973-.69.51-1.594.763-2.716.763-1.476 0-3.358-.458-5.638-1.37v2.42c2.116.513 3.859.77 5.229.77 2.146 0 3.863-.45 5.16-1.357 1.294-.904 1.94-2.102 1.94-3.592 0-1.046-.345-1.949-1.037-2.698-.693-.746-1.913-1.546-3.666-2.385zm-19.078 6.306c-1.13 1.27-2.708 1.906-4.726 1.906-2.021 0-3.596-.637-4.727-1.906-1.137-1.271-1.7-3.035-1.7-5.301 0-2.244.563-3.997 1.7-5.262 1.131-1.262 2.706-1.893 4.727-1.893 2.018 0 3.597.631 4.726 1.893 1.133 1.265 1.7 3.018 1.7 5.262 0 2.266-.567 4.03-1.7 5.301zM37.379 0c-2.875 0-5.174.817-6.892 2.446-1.724 1.637-2.582 3.818-2.582 6.55 0 2.738.858 4.918 2.582 6.554C32.205 17.183 34.504 18 37.38 18s5.17-.817 6.893-2.45c1.719-1.636 2.58-3.816 2.58-6.554 0-2.732-.861-4.913-2.58-6.55C42.549.816 40.254 0 37.379 0zm69.99 11.321c0 1.763-.336 3.015-1.008 3.748-.67.74-1.808 1.111-3.414 1.111-1.644 0-2.842-.393-3.592-1.18-.754-.784-1.129-2.037-1.129-3.76V.413h-2.873v10.803c0 2.332.602 4.04 1.814 5.138C98.373 17.45 100.26 18 102.823 18c1.984 0 3.538-.38 4.67-1.137.903-.607 1.528-1.313 1.875-2.124.348-.802.52-1.954.52-3.449V.414h-2.52v10.907zm84.066 2.953c-1.136 1.27-2.709 1.906-4.726 1.906-2.02 0-3.596-.637-4.73-1.906-1.13-1.271-1.697-3.035-1.697-5.301 0-2.244.567-3.997 1.697-5.262 1.134-1.262 2.71-1.893 4.73-1.893 2.017 0 3.59.631 4.726 1.893 1.133 1.265 1.7 3.018 1.7 5.262 0 2.266-.567 4.03-1.7 5.301zM186.709 0c-2.878 0-5.171.817-6.894 2.446-1.722 1.637-2.58 3.818-2.58 6.55 0 2.738.858 4.918 2.58 6.554 1.723 1.633 4.016 2.45 6.894 2.45 2.875 0 5.17-.817 6.893-2.45 1.721-1.636 2.58-3.816 2.58-6.554 0-2.732-.859-4.913-2.58-6.55C191.879.816 189.584 0 186.709 0zm-24.302.414h-2.867V17.58h12.01v-1.818h-9.143V.414zm-39.71 8.095h-.93V2.238h1.805c3.023 0 4.532.894 4.532 2.672 0 1.177-.457 2.07-1.38 2.683-.918.606-2.261.916-4.027.916zm7.297-.918a4.44 4.44 0 0 0 1.053-2.917c0-1.38-.515-2.439-1.55-3.167-1.04-.724-2.527-1.093-4.47-1.093h-6.13V17.58h2.87v-7.246h2.742l5.693 7.246h3.511l-6.685-8.025c1.274-.459 2.26-1.113 2.966-1.963zm10.574 9.988h2.87V9.806h7.083V7.983h-7.084V2.238h8.439V.414h-11.308V17.58zm61.2-17.165v1.824h7.18v15.341h2.871V2.238H219V.414h-17.232z" fill="#7F7F7F" mask="url(#b)"/></g></g></svg>