<svg width="274" height="59" viewBox="0 0 274 59" xmlns="http://www.w3.org/2000/svg" xmlns:xlink="http://www.w3.org/1999/xlink"><title>logo rus vertical</title><defs><path id="a" d="M218 18V0H0v18h218z"/></defs><g fill="none" fill-rule="evenodd"><path d="M30.363 4.727c-2.696 2.985-4.056 7.202-4.056 12.563 0 .886.04 1.805.113 2.756h-.843c.073-.951.115-1.87.115-2.756 0-5.361-1.362-9.578-4.06-12.563-4.076-4.51-9.66-4.456-9.898-4.45l-1.116.022v22.336h1.824v8.153h2.276V20.34h-1.825V2.663c1.627.225 4.706.99 7.081 3.635 2.291 2.55 3.443 6.234 3.443 10.986 0 1.19-.071 2.457-.22 3.785l-.139 1.273h5.881l-.141-1.273a34.833 34.833 0 0 1-.219-3.785c0-4.752 1.153-8.436 3.444-10.986 2.375-2.644 5.455-3.41 7.08-3.635V20.34h-1.824v26.905h2.278v-24.61h1.82V.299L40.26.277c-.233-.006-5.82-.06-9.897 4.45" fill="#FF3C3C"/><path d="M26.771 34.97a40.475 40.475 0 0 0-1.262-.844h-7.284c-.095-.03-.19-.062-.285-.09a86.236 86.236 0 0 0-2.478-.762c.07-.273.392-.887.392-.887.158-.05 1.344.752 3.235.77 2.475.02 4.162-.739 5.204-.716 2.17.054 4.2 1.84 4.65 3.012-.795.517-1.448.032-2.172-.483zm-1.987 1.58a93.139 93.139 0 0 0-2.764-1.086c.001-.305.014-.727.151-.727.152 0 2.68.05 2.68.05s-.018 1.17-.067 1.762zm-13.297-4.27c.3-.402.57-.74.699-.854.341-.036 1.834-.04 3.82-.027-.046.125-.11.229-.204.277-.256.128-.743 1.002-1.026 1.409a52.532 52.532 0 0 0-3.289-.804zm5.073-.808l.01-.068c1.786.015 3.892.038 5.904.07v.665c-2.274.557-4.8.557-6.038-.16.227-.166 0-.377.124-.507zm6.828.012l2.048.037c.26.163.56.395.88.715 0 0-1.264-.408-2.983-.358.022-.108.035-.259.055-.394zm13.743 11.14l-6.823-5.209.1-.536s2.984 2.3 3.184 2.504c.204.203.608-.41.51-.51-.103-.102-4.703-4.087-4.703-4.087-.152-.76-2.622-3.61-3.786-4.027v-.002c-.028 0-2.686-.045-5.618-.084l.305-.028c-.108-1.213-.058-3.455-.022-4.937l.024-1.306h-.758l-.025 1.285c-.035 1.481-.086 3.714.021 4.982a47.41 47.41 0 0 0-.598-.007c-6.802-.078-6.94-.01-7.074.059-.248.126-.74.748-1.204 1.39-4.197-.81-7.546-.826-10-.046l-.527.17v.563c0 .543.236.876.382 1.077.032.05.069.102.085.134 2.02 4.038 6.1 9.808 6.952 10.998-.214-.948.88-.547.88-.547.258-.208-.662-1.236-.402-1.417-.893-1.28-2.323-3.37-3.665-5.516 4.65.155 7.698 1.259 9.473 2.198.59.31 1.08.623 1.48.91.411-.014.824-.01 1.232.005a12.33 12.33 0 0 0-2.305-1.565c-1.916-1.023-5.245-2.234-10.362-2.33-.726-1.193-1.405-2.377-1.93-3.429-.002-.002-.006-.007-.006-.01 8.58-1.873 25.593 6.097 25.768 6.183l.645-1.389c-.024-.009-1.11-.52-2.855-1.252v-1.856c1.314.461 4.596 3.116 4.596 3.116 0 .663-.858 1.122-.858 1.122 4.245.715 7.28 3.52 7.28 3.52s-.518 1-.777 1.372c-1.931-1.23-4.883-2.596-6.627-3.402-.486-.226-.87-.405-1.07-.505l-.34.68c.21.111.601.293 1.096.522 1.978.914 6.092 2.82 7.64 4.142l.49-.583a9.236 9.236 0 0 0-.788-.595l.98-1.757zM22.09 40.746c1.377.166 3.142.678 3.65.834l.155-.513c-.519-.155-2.32-.685-3.745-.854l-.06.533zm-2.517-3.14c-.83-.182-1.543-.337-2.05-.48l-.204.735c.527.153 1.251.31 2.092.492 2.172.476 5.142 1.126 7.082 2.159l.354-.676c-2.031-1.083-5.06-1.746-7.274-2.23zm7.218 3.66l-.242.724 1.831.61c2.324.769 3.729 1.23 6.512 2.88l.384-.66c-2.856-1.695-4.372-2.19-6.662-2.946l-1.823-.608z" fill="#899097"/><path d="M9.132 49.927s3.606 4.47 3.9 4.47C13.324 54.398 22.2 52 22.2 52l7.92 1.044 7.315-.819 3.451-2.692s1.082-3.071.688-3.071c-.394 0-6.58 1.424-6.58 1.424s-5.644-.45-5.923-.45c-.28 0-7.272-3.57-7.738-3.57-.465 0-6.674-.083-7.254-.083-.58 0-3.863 2.566-3.863 2.566s-.347 1.631-.716 1.937c-.369.306-.369 1.64-.369 1.64z" fill="#FFF"/><path d="M29.822 54.306c3.973.412 8-.007 12.737-5.396.467-1.236.292-4.169.292-4.169-8.374 3.854-13.493 1.514-16.673-1.132-4.9-2.784-12.681-5.022-18.92.016 0 0 .383 1.985 1.62 6.736 4.585-4.002 8.467-5.672 15.137-3.222 3.41 1.303 5.836 3.827 16.627.896-5.71 5.382-9.348 4.39-13.16 3.066-4.4-.912-10.12-1.262-14.958 3.617 3.987.997 5.274 3.064 6.546 3.691 3.607-2.63 6.159-4.839 10.752-4.103" fill="#5FB1E2"/><g transform="translate(56 19.505)"><mask id="b" fill="#fff"><use xlink:href="#a"/></mask><path d="M201.692.408v1.819h7.212v15.365h2.883V2.227H219V.407h-17.308zm-55.28 11.645c-.87.767-1.98 1.149-3.336 1.149V4.798c1.484.085 2.628.503 3.432 1.254.806.749 1.209 1.77 1.209 3.063 0 1.192-.434 2.173-1.304 2.938zm-6.033 1.149c-1.36 0-2.473-.382-3.34-1.15-.867-.764-1.3-1.745-1.3-2.937 0-1.293.404-2.314 1.213-3.063.805-.75 1.95-1.17 3.427-1.254v8.404zm8.064-8.451c-1.44-1.161-3.228-1.741-5.367-1.741V.408h-2.697V3.01c-2.137 0-3.927.58-5.365 1.74-1.44 1.162-2.162 2.601-2.162 4.32 0 1.608.721 3.001 2.162 4.182 1.438 1.178 3.14 1.77 5.105 1.77h.26v2.57h2.697v-2.57h.232c1.984 0 3.695-.588 5.135-1.765 1.439-1.175 2.157-2.57 2.157-4.188 0-1.718-.718-3.157-2.157-4.318zm44.034 9.527c-1.132 1.27-2.71 1.904-4.727 1.904-2.02 0-3.597-.633-4.731-1.904-1.132-1.272-1.697-3.037-1.697-5.303 0-2.245.565-3.998 1.697-5.264 1.134-1.261 2.71-1.892 4.73-1.892 2.018 0 3.596.63 4.728 1.892 1.131 1.266 1.699 3.019 1.699 5.264 0 2.266-.568 4.031-1.7 5.303zM187.75 0c-2.885 0-5.188.818-6.913 2.45-1.726 1.635-2.588 3.817-2.588 6.55 0 2.733.862 4.918 2.588 6.552 1.725 1.633 4.028 2.448 6.913 2.448 2.882 0 5.185-.815 6.91-2.448 1.727-1.634 2.59-3.82 2.59-6.552 0-2.733-.863-4.915-2.59-6.55C192.935.818 190.632 0 187.75 0zm-85.255 9.541L97.05.408h-3.212l6.992 11.726-.439.697c-.72 1.117-1.416 1.855-2.086 2.216-.67.359-1.68.538-3.028.538h-.561v2.007h.533c1.935 0 3.39-.276 4.366-.829.976-.555 2.02-1.702 3.134-3.443L111.082.408h-2.687l-5.9 9.133zm57.056-8.04c0 5.926-.32 9.694-.96 11.3-.613 1.54-1.904 2.428-3.869 2.66v2.131c1.88-.155 3.326-.564 4.344-1.233 1.017-.667 1.793-1.712 2.325-3.134.697-1.872 1.046-5.41 1.046-10.615v-.383h6.081v15.365h2.885V.408h-11.852V1.5zm-35.288 6.435c-.923.667-2.232 1.002-3.921 1.002h-1.154V2.227h1.749c1.683 0 2.889.221 3.616.663.73.443 1.094 1.176 1.094 2.202 0 1.227-.463 2.176-1.384 2.844zm1.251-7.198c-.862-.22-2.09-.33-3.682-.33h-5.528v17.184h2.884v-6.836h1.272c2.59 0 4.613-.516 6.07-1.555 1.458-1.036 2.189-2.466 2.189-4.29 0-1.27-.36-2.272-1.084-3.005-.55-.559-1.255-.948-2.12-1.168zm-84.468 13.54c-1.134 1.27-2.71 1.904-4.729 1.904s-3.595-.633-4.727-1.904c-1.133-1.272-1.699-3.037-1.699-5.303 0-2.245.566-3.998 1.7-5.264 1.131-1.261 2.707-1.892 4.726-1.892 2.02 0 3.595.63 4.729 1.892 1.133 1.266 1.7 3.019 1.7 5.264 0 2.266-.567 4.031-1.7 5.303zM36.317 0c-2.883 0-5.186.818-6.912 2.45C27.68 4.085 26.817 6.267 26.817 9c0 2.733.863 4.918 2.588 6.552C31.131 17.185 33.435 18 36.317 18c2.883 0 5.187-.815 6.914-2.448 1.725-1.634 2.587-3.82 2.587-6.552 0-2.733-.862-4.915-2.587-6.55C41.504.818 39.2 0 36.317 0zM10.635 13.681L4.999.408H1v17.184h2.477V3.537l5.464 12.896h2.74l5.59-12.794.03 13.953h2.668V.408h-3.542L10.635 13.68zM72.509 2.227h7.212v15.365h2.885V2.227h7.211V.407H72.51v1.82zM56.461 14.229c-1.29-1.26-1.935-2.988-1.935-5.184 0-2.297.603-4.076 1.81-5.337 1.206-1.258 2.91-1.889 5.114-1.889 1.509 0 3.652.408 6.432 1.223V.754C65.44.25 63.311 0 61.5 0c-3.194 0-5.667.786-7.418 2.36-1.753 1.57-2.63 3.786-2.63 6.652 0 2.873.862 5.09 2.582 6.649C55.754 17.22 58.194 18 61.35 18c2.372 0 4.56-.438 6.565-1.316v-2.101c-2.196 1.026-4.249 1.536-6.16 1.536-2.24 0-4.006-.63-5.294-1.89z" fill="#828A91" mask="url(#b)"/></g></g></svg>