<svg width="26" height="23" viewBox="0 0 26 23" xmlns="http://www.w3.org/2000/svg" xmlns:xlink="http://www.w3.org/1999/xlink"><title>Group 34 Copy</title><defs><path d="M0 22h11.5s.355 1 1.5 1c.94 0 1.5-1 1.5-1H26V1.5S24.03 0 19 0c-4.652 0-6 1.5-6 1.5S11.88.013 6.5 0C1.509.013 0 1.5 0 1.5V22z" id="a"/><mask id="b" x="0" y="0" width="26" height="23" fill="#fff"><use xlink:href="#a"/></mask></defs><g fill="none" fill-rule="evenodd"><use stroke="#11A1E0" mask="url(#b)" stroke-width="4" xlink:href="#a"/><path d="M7.04 21.392c2.76 0 4.96.324 4.96-.642S9.761 19 7 19s-5 .784-5 1.75 2.278.642 5.04.642zm12 0c2.76 0 4.96.324 4.96-.642S21.761 19 19 19s-5 .784-5 1.75 2.278.642 5.04.642zM12 3h2v18h-2z" fill="#11A1E0"/></g></svg>