<svg xmlns="http://www.w3.org/2000/svg" width="30" height="24" viewBox="0 0 30 24"><title>Shape</title><defs><linearGradient id="a" gradientUnits="userSpaceOnUse" x1="150" y1="4497.5" x2="136.847" y2="4497.5"><stop stop-color="#fa2343" offset="0"/><stop stop-color="#e56a77" offset="1"/></linearGradient><linearGradient id="b" gradientUnits="userSpaceOnUse" x1="153" y1="4485.999" x2="142.239" y2="4485.999"><stop stop-color="#fa2343" offset="0"/><stop stop-color="#e56a77" offset="1"/></linearGradient></defs><path d="M11.35 3c-4.1.99-6.9 2.98-6.9 5.26 0 1.09.65 2.14 1.75 2.98C2.45 12.53 0 14.57 0 16.95 0 20.82 6.7 24 15 24s15-3.13 15-7.05c0-1.79-1.4-3.38-3.7-4.62 2.15-1.04 3.45-2.48 3.45-4.07 0-1.78-1.75-3.42-4.45-4.52" fill="#fff"/><path d="M150 4497.98c0 1.1-2.46 2.02-5.5 2.02s-5.5-.92-5.5-2.02 3.47-2.98 6.51-2.98c2.99 0 4.49 1.83 4.49 2.98z" fill="url(#a)" transform="translate(-130 -4482)"/><path d="M153 4485.37c0 .89-2.01 1.63-4.5 1.63s-4.5-.74-4.5-1.63c0-.89 2.86-2.37 5.35-2.37 2.43-.05 3.65 1.43 3.65 2.37z" fill="url(#b)" transform="translate(-130 -4482)"/></svg>