<svg xmlns="http://www.w3.org/2000/svg" width="24" height="17" viewBox="0 0 24 17"><title>Page 1</title><path d="M9.39 0c-.7 0-1.27.56-1.27 1.25v5.82l.58-.39c.47-.31.83-.29 1.07.06.24.35.12.69-.35 1l-1.3.86v1.16c0 .69.57 1.25 1.27 1.25H22.3c.7 0 1.27-.56 1.27-1.25V1.25C23.57.56 23 0 22.3 0zM6.86 7.9V6.06c0-1.05-.59-1.58-1.77-1.58H1.78C.6 4.48 0 5.01 0 6.06v6.46c0 .56.22.83.65.83.43 0 .65-.27.65-.83V6.89h.31v9.39h1.61v-3.85h.42v3.85h1.61V6.89h.31v2c0 .55.22.83.65.83.13 0 .24-.03.33-.09v.01L8.12 8.6V7.07zM3.41 4.31c-.38 0-.72-.18-1-.56-.28-.37-.42-.79-.42-1.26s.14-.86.42-1.19c.27-.33.61-.49 1-.49s.72.16 1 .49c.28.33.42.72.42 1.19s-.14.89-.42 1.26c-.28.38-.61.56-1 .56z" fill="#1dace2"/></svg>