<svg xmlns="http://www.w3.org/2000/svg" width="28" height="20" viewBox="0 0 28 20"><title>Fill 1</title><path d="M23.65 9.83c0-2.65-.94-4.92-2.81-6.81C18.96 1.14 16.7.2 14.04.2c-2.64 0-4.9.94-6.78 2.82-1.88 1.89-2.82 4.16-2.82 6.81 0 2.66.94 4.93 2.82 6.81s4.14 2.82 6.78 2.82c2.66 0 4.92-.94 6.8-2.82 1.87-1.88 2.81-4.15 2.81-6.81zm-2.6.01c0 1.94-.68 3.59-2.05 4.96-1.36 1.38-3.02 2.06-4.96 2.06s-3.59-.68-4.96-2.06c-1.36-1.37-2.05-3.02-2.05-4.96 0-1.93.69-3.58 2.05-4.95 1.37-1.36 3.02-2.05 4.96-2.05s3.6.69 4.96 2.05c1.37 1.37 2.05 3.02 2.05 4.95zm-.7 0c0-1.73-.61-3.22-1.84-4.45-1.24-1.23-2.73-1.85-4.47-1.85-1.74 0-3.23.62-4.46 1.85S7.73 8.11 7.73 9.84c0 1.75.62 3.24 1.85 4.47 1.23 1.24 2.72 1.85 4.46 1.85 1.74 0 3.23-.61 4.47-1.85 1.23-1.23 1.84-2.72 1.84-4.47zm6.74-5.12c-.01-1.95-.4-3.32-1.16-4.11-.31-.33-.69-.54-1.14-.61v10.21h.2v9.5h1.35v-9.5h.4c.24-3.02.36-4.85.35-5.49zM3.74 6.74c-.53.42-.8.79-.8 1.1v11.87H1.6V7.84c0-.31-.27-.68-.8-1.1-.54-.42-.8-.96-.8-1.61C0 3.35.38 1.64 1.15 0v4.39h.7V0h.79v4.39h.7V0c.8 1.64 1.2 3.35 1.2 5.13 0 .65-.27 1.19-.8 1.61z" fill="#1dace2"/></svg>