<svg xmlns="http://www.w3.org/2000/svg" width="30" height="30" viewBox="0 0 30 30"><title>Oval 13</title><defs><linearGradient id="a" gradientUnits="userSpaceOnUse" x1="163" y1="6167" x2="127.129" y2="6167"><stop stop-color="#fa2343" offset="0"/><stop stop-color="#e56a77" offset="1"/></linearGradient></defs><path d="M1 15.5C1 7.492 7.492 1 15.5 1S30 7.492 30 15.5 23.508 30 15.5 30 1 23.508 1 15.5z" fill="#fff"/><path d="M133 6167c0-8.284 6.716-15 15-15 8.284 0 15 6.716 15 15 0 8.284-6.716 15-15 15-8.284 0-15-6.716-15-15zm9.83-2.11l2.95-3.21-2.46-6.25s-2.04 1.09-4.07 2.49c-2.03 1.4-2.82 4.22-2.82 4.22zm10.27 5.11l-2.96 3.21 2.47 6.25s2.03-1.09 4.06-2.49c2.04-1.4 2.83-4.22 2.83-4.22z" fill="url(#a)" transform="translate(-133 -6152)"/><path d="M13 15a2 2 0 1 1 4 0 2 2 0 0 1-4 0z" fill="none" stroke-dasharray="0" stroke="#fff" stroke-miterlimit="50" stroke-width="2"/></svg>