<svg id="SvgjsSvg1092" xmlns="http://www.w3.org/2000/svg" width="30" height="31" viewBox="0 0 30 31"><style>.st0{fill:red;fill-opacity:0;stroke:#f0455b;stroke-width:2;stroke-linecap:square;stroke-miterlimit:50;stroke-dasharray:0}.st1{fill:url(#SVGID_1_)}</style><title>Combined Shape</title><path id="SvgjsPath1098" class="st0" d="M15 9.1V1"/><path id="SvgjsPath1099" class="st0" d="M12 4h6"/><linearGradient id="SVGID_1_" gradientUnits="userSpaceOnUse" x1="30" y1="20" x2="-5.871" y2="20"><stop offset="0" stop-color="#fa2343"/><stop offset="1" stop-color="#e56a77"/></linearGradient><path class="st1" d="M29.9 16c-.4-1.7-2-3-3.9-3-1.3 0-2.5.7-3.2 1.7C21.9 11.4 18.7 9 15 9s-6.9 2.4-7.8 5.7C6.5 13.7 5.3 13 4 13 2.1 13 .6 14.3.1 16H0v15h4v-5.5C4 24.1 5.1 23 6.5 23S9 24.1 9 25.5V31h3v-7.5c0-1.9 1.6-3.5 3.5-3.5s3.5 1.6 3.5 3.5V31h3v-5.5c0-1.4 1.1-2.5 2.5-2.5s2.5 1.1 2.5 2.5V31h3V16h-.1z"/></svg>