<svg xmlns="http://www.w3.org/2000/svg" width="30" height="25" viewBox="0 0 30 25"><title>Shape</title><defs><linearGradient id="a" gradientUnits="userSpaceOnUse" x1="154" y1="6237" x2="128.89" y2="6237"><stop stop-color="#fa2343" offset="0"/><stop stop-color="#e56a77" offset="1"/></linearGradient><linearGradient id="b" gradientUnits="userSpaceOnUse" x1="163" y1="6237.001" x2="152.239" y2="6237.001"><stop stop-color="#fa2343" offset="0"/><stop stop-color="#e56a77" offset="1"/></linearGradient></defs><path d="M154 6241c0 2.2-1.8 4-4 4h-13c-2.2 0-4-1.8-4-4v-8c0-2.2 1.8-4 4-4h13c2.2 0 4 1.8 4 4z" fill="url(#a)" transform="translate(-133 -6221)"/><path d="M154 6234.08s7.38-4.83 7-5c1.16-.28 2 .22 2 1v14c0 .74-.84 1.29-2 1 .38-.16-7-5-7-5z" fill="url(#b)" transform="translate(-133 -6221)"/><path d="M12 5a3 3 0 1 1 6 0 3 3 0 0 1-6 0zM5 3.5a3.5 3.5 0 1 1 7 0 3.5 3.5 0 0 1-7 0z" fill="#fff"/></svg>