<svg xmlns="http://www.w3.org/2000/svg" width="26" height="30" viewBox="0 0 26 30"><title>Shape</title><defs><linearGradient id="a" gradientUnits="userSpaceOnUse" x1="161" y1="6028.004" x2="129.912" y2="6028.004"><stop stop-color="#fa2343" offset="0"/><stop stop-color="#e56a77" offset="1"/></linearGradient></defs><path d="M136.38 6030.56h2.47c.1 0 .69-.15 1.92-1.45 2.47-2.5 5.13-2.4 8.34.2l.14.15.05.2c.15.6.45 1.4.64 1.7.6 0 1.24-.05 1.43-.15.15-.35.15-1.8.15-2.9 0-1.75 0-3.7.35-5.2.1-.4.19-.8.29-1.2.2-.8.55-2 .35-2.2 0 0-.2-.15-.99.1-2.61.65-5.23 1.1-6.36-.2-.64-.7-.69-1.75-.25-3.1 1.48-4.34 4-3.59 5.38-3.19.34.09.64.19.84.19 1.53 0 4.24.75 5.62 2.9.25.35.49.7.74 1 1.03 1.4 2.07 2.7 2.61 7.1.15 1.15.3 2.15.4 3.1.44 3.3.74 5.45.24 7.59-.49 1.95-.34 2.65-.29 2.75l.34.5-.59.3c-.05 0-4.19 2.1-8.04 3.4-1.62.55-3.6.85-5.72.85-3.5 0-7.3-.85-10.11-2.9l-.1-.1-1.23-1.5" fill="url(#a)" transform="translate(-135 -6013)"/><path d="M18 9l5-4" fill-opacity="0" fill="#fff" stroke-dasharray="0" stroke-linecap="square" stroke="#fff" stroke-miterlimit="50" stroke-width="2"/><path d="M21.268 6.5c-.69-1.196-.475-2.613.482-3.165s2.292-.03 2.982 1.165c.69 1.196.475 2.613-.482 3.165s-2.292.03-2.982-1.165z" fill="#fff"/></svg>