<svg xmlns="http://www.w3.org/2000/svg" width="26" height="20" viewBox="0 0 26 20"><title>Page 1</title><path d="M17.58 12.75c-.76.48-2.18.69-4.27.64-2.09-.05-3.66-.57-4.72-1.55l-2.36 4.53c.27.25.91.53 1.9.86 1 .32 2.17.56 3.51.71 1.33.14 2.74.14 4.22-.01 1.48-.16 2.84-.58 4.08-1.27zm-3.62-2.01h1.77v-.75h-1.77zM9.35 8.57h1.35v-.9H9.35zm2.66.66h1.51v-.8h-1.51zm2.86-.81h1.45v-.59h-1.45zm4.92-6.97c.03.28.23.61.61.98.39.38.78.75 1.19 1.13.4.39.73.76.99 1.12.25.37.26.68.03.94-.3.35-.73.33-1.27-.05-.55-.39-1.15-.56-1.79-.5.09.78.14 1.87.15 3.26 0 1.39-.18 2.51-.56 3.36.33.75.64 1.46.95 2.13.31.66.7 1.36 1.16 2.09.45-.27.9-.6 1.35-.98.45-.38.9-.88 1.36-1.48l1.16.76c-1.65 2.07-3.58 3.53-5.8 4.37a16.2 16.2 0 0 1-6.81 1.02c-2.32-.15-4.58-.74-6.78-1.76-2.2-1.03-4.11-2.37-5.73-4.04l1.01-.8c.52.45 1.1.92 1.73 1.38.64.47 1.33.88 2.09 1.23.47-.97.75-2.28.84-3.92.1-1.65.59-3.29 1.47-4.92-.38-1.03-.72-1.43-1.03-1.22-.3.22-.66.58-1.07 1.08-.41.5-.92.92-1.53 1.23-.61.31-1.41.05-2.41-.78.74.02 1.34-.14 1.81-.5.46-.36.85-.77 1.18-1.22.32-.45.61-.89.86-1.29s.55-.64.88-.71c.47-.08.8.11.98.55.18.44.57 1.26 1.18 2.47.25.47.83.81 1.74 1.01.9.21 1.83.29 2.78.25.95-.03 1.76-.18 2.44-.44.67-.26.9-.62.67-1.08.58-.65 1.22-1.62 1.92-2.92.7-1.3 1.52-2.37 2.45-3.2z" fill="#1dace2"/></svg>