<svg xmlns="http://www.w3.org/2000/svg" width="25" height="25" viewBox="0 0 25 25"><title>Shape</title><defs><linearGradient id="a" gradientUnits="userSpaceOnUse" x1="160" y1="5961.5" x2="131.303" y2="5961.5"><stop stop-color="#fa2343" offset="0"/><stop stop-color="#e56a77" offset="1"/></linearGradient></defs><path d="M148.87 5974c-7.11 0-12.87-5.6-12.87-12.5s5.76-12.5 12.87-12.5c4.54 0 8.79 2.34 11.08 6.15.16.28.08.64-.21.83l-9.64 5.56 9.31 6.03c.29.2.37.56.17.83-2.37 3.5-6.38 5.6-10.71 5.6z" fill="url(#a)" transform="translate(-136 -5949)"/><path d="M9 6.13C9 4.39 10.47 3 12.31 3c1.85 0 3.32 1.39 3.32 3.13 0 1.73-1.47 3.12-3.32 3.12C10.47 9.25 9 7.86 9 6.13z" fill="#fff"/></svg>