<svg xmlns="http://www.w3.org/2000/svg" width="37" height="36" viewBox="0 0 37 36"><title>Mask</title><defs><linearGradient id="a" gradientUnits="userSpaceOnUse" x1="163.001" y1="4622.001" x2="127.13" y2="4622.001"><stop stop-color="#fa2343" offset="0"/><stop stop-color="#e56a77" offset="1"/></linearGradient></defs><path d="M141.03 4632.81l4.15-4.05s24.33-6.34 16.13-16.53l-.5-.9c-.5-.9-1.24-1.65-2.14-2.15l-.9-.49c-10.19-8.2-16.54 16.13-16.54 16.13l-4.04 4.14c-.65-.4-1.15-.75-1.65-.95-1.95-.65-3.4 1.75-1.95 3.25l1.1 1.1 2.4.55.54 2.39 1.1 1.1c1.45 1.45 3.9.05 3.25-1.94-.2-.55-.55-1.05-.95-1.65z" fill="url(#a)" transform="translate(-126 -4607)"/><path d="M11.56 18.06s1.33 1.72 3.15.3c1.81-1.42.07 1.79.35 2.09.2.21 1.6-.22 1.81 0 .32.33.34 1.34.67 1.69.3.32 1.45-.78 1.75-.46 1.8 1.92.64 5.3.64 5.3l-6.63 8.8L0 28.59s.49-7.43 1.42-7.43c.94 0 10.14-3.1 10.14-3.1zm15.21-2.73c-.26 0-.57-.14-.68-.39-.21-.34-.05-.78.37-.97 3.39-1.61 4.38-3.07 4.59-4.04.26-1.02-.32-1.76-.32-1.76-.26-.34-.2-.77.16-1.02.37-.24.84-.19 1.1.15.05.05.99 1.22.57 2.97-.47 1.85-2.3 3.55-5.42 5.01-.16.05-.27.05-.37.05z" fill="#fff"/></svg>