<svg xmlns="http://www.w3.org/2000/svg" width="31" height="24" viewBox="0 0 31 24"><title>Shape</title><defs><linearGradient id="a" gradientUnits="userSpaceOnUse" x1="161" y1="4740.5" x2="123.933" y2="4740.5"><stop stop-color="#fa2343" offset="0"/><stop stop-color="#e56a77" offset="1"/></linearGradient><linearGradient id="b" gradientUnits="userSpaceOnUse" x1="161" y1="4729.5" x2="125.129" y2="4729.5"><stop stop-color="#fa2343" offset="0"/><stop stop-color="#e56a77" offset="1"/></linearGradient></defs><path d="M161 4740c0-.55-.46-1-1.03-1h-28.94c-.56 0-1.03.45-1.03 1v1c0 .55.47 1 1.03 1h28.94c.57 0 1.03-.45 1.03-1z" fill="url(#a)" transform="translate(-130 -4718)"/><path d="M146.03 4722c-8.27 0-15.03 6.44-15.03 15h30c0-8.56-6.71-15-14.97-15z" fill="url(#b)" transform="translate(-130 -4718)"/><path d="M24.33 16c-.38 0-.66-.3-.71-.7-.48-5.19-6.03-6.83-6.08-6.83-.38-.1-.61-.5-.52-.9.1-.4.48-.65.86-.55.28.1 6.59 1.95 7.11 8.13.05.4-.23.8-.66.8V16z" fill="#fff"/><path d="M16 5c-.53 0-1-.39-1-.83V.83c0-.44.47-.83 1-.83s1 .39 1 .83v3.34c0 .44-.47.83-1 .83z" fill="#dd1551"/></svg>