<svg xmlns="http://www.w3.org/2000/svg" width="19" height="23" viewBox="0 0 19 23"><title>Fill 1</title><path d="M6.28 4.12c.31.08.61.18.89.28.28.12.57.24.88.37.31.14.6.28.87.42.25.14.52.31.81.5l3.17 2.09c.49 0 .92-.23 1.29-.68.37-.44.55-.89.55-1.35 0-.58-.84-1.26-2.53-2.04S8.85 2.53 7.22 2.53c-.89 0-1.68.08-2.35.23-.66.17-1 .32-1.01.44 0 .11.09.2.26.28zm.98 7.65c-.46-.54-.99-1.35-1.59-2.45-.62-1.09-1.08-2.05-1.37-2.88l-.91-2.67c-.47.55-.71 1.69-.71 3.43 0 1.57.34 3.15 1.02 4.74.68 1.61 1.4 2.41 2.14 2.41.58 0 1.07-.17 1.48-.53.41-.36.62-.72.62-1.09 0-.08-.22-.4-.68-.96zM16.46 23h-1.54v-7.1l-3.01-2.89a.883.883 0 0 0-.64-.26l-.27.02-1.1.24-.48 1.71c-.22.68-.83 1.02-1.83 1.02-.37 0-.57.09-.6.29 0 .89-.23 1.53-.69 1.91-.48.44-1.04.66-1.69.66-1.09 0-2.12-.89-3.11-2.65C.5 14.2 0 12.41 0 10.59 0 9.23.19 8.03.55 7l.61-1.19.71-1.34c.12-1.03.32-1.69.61-1.98.24-.27.85-.46 1.86-.58.21-.12.4-.25.59-.37.01-.01.25-.14.7-.38C6.08.93 6.7.68 7.48.41 8.26.13 9.34 0 10.7 0c.91 0 1.81.12 2.69.35.88.24 2.04.74 3.47 1.49C18.29 2.58 19 3.51 19 4.62c0 .57-.19 1.06-.58 1.44-.39.39-.92.62-1.59.69-.48 0-.72.17-.72.5 0 .84-.22 1.47-.65 1.9-.44.4-1.09.6-1.97.6-.22.02-.33.1-.34.24l-.24 1.38.02.26c.01.08.12.21.33.39l3.2 3.07z" fill="#1dace2"/></svg>