<svg xmlns="http://www.w3.org/2000/svg" width="1120.6" height="308" viewBox="0 0 1120.6 308"><path fill="#FFF" d="M1088.5 5.6c-11.2-6.3-74 3.2-89.1 5.7-3.9-6.5-6.4-9.6-6.4-9.6L208 162.9l-5.6 34.9L1.6 245.4l3.5 31.7 15.3 29.3 204.4-35.5 25.2 28.6 785-161.2s.4-3.8.1-11c14.8-3.7 75.7-19.5 81.8-29.4 7-11.3-5.4-48-5.4-48s-10.3-37.1-23-44.3z"/><path fill-rule="evenodd" clip-rule="evenodd" fill="#C0F3FF" stroke="#1DACE2" stroke-width="3" stroke-miterlimit="10" d="M473.9 144.5l20.3-15.9 327.4-67.2-7.1-23.1L762.1 49l3.1 10.2-205.1 42.1-3.1-10.2-29.6 6.1 3.1 10.2-311.6 64-5.3 23.7-19.5 4.6 22.4 72.7 19.9-3.5 18.4 18.8 311.6-64 3.1 10.2 29.6-6.1-3.1-10.2 205.1-42.1 3.1 10.2 52.3-10.7-7.1-23.1L522 219.1l-27.1-6.2-40.4 8.3-21.1-68.3 40.5-8.4zm-175.1 82.1l-20.7 4.3-6-19.4 20.7-4.3 6 19.4z"/><path fill="#1DACE2" d="M522 219.1l141-28.9-27.9-90.5-141 28.9-20.2 15.9 21 68.4z"/><g stroke="#1DACE2"><path d="M229 207.3l-28.9 5.9-3.6-11.6 28.9-5.9zm-3.6-11.6l3.6 11.6m-5.4-11.3l3.6 11.7m-5.4-11.3l3.6 11.6m-5.4-11.2l3.6 11.6m-5.4-11.2l3.6 11.6m-5.4-11.3l3.5 11.6m-5.3-11.2l3.5 11.6m-5.3-11.2l3.5 11.6m-5.3-11.3l3.5 11.7m-5.3-11.3l3.5 11.6m-5.3-11.2l3.5 11.6m-5.4-11.3l3.6 11.7m-5.4-11.3l3.6 11.6m-5.4-11.2l3.6 11.6m-5.4-11.2l3.6 11.6m-5.4-11.3l3.6 11.6m-5.4-11.2l3.6 11.6m46.7 51.9l-28.9 5.9-3.5-11.6 28.8-5.9zm-3.6-11.6l3.6 11.6m-5.4-11.3l3.6 11.7m-5.4-11.3l3.6 11.6m-5.4-11.2l3.6 11.6m-5.4-11.3l3.6 11.7m-5.4-11.3l3.6 11.6m-5.4-11.2l3.6 11.6m-5.4-11.2l3.6 11.6m-5.4-11.3l3.6 11.7m-5.4-11.3l3.6 11.6m-5.4-11.2l3.6 11.6m-5.4-11.3l3.6 11.7m-5.4-11.3l3.5 11.6m-5.3-11.2l3.5 11.6m-5.3-11.2l3.5 11.6m-5.3-11.3l3.5 11.6m-5.3-11.2l3.5 11.6m371-41.1l-19.3 4-3.6-11.6 19.3-4zm-3.6-11.6l3.6 11.6m-5.4-11.2l3.6 11.6m-5.4-11.3l3.6 11.7m-5.4-11.3l3.6 11.6m-5.4-11.2l3.6 11.6m-5.4-11.3l3.6 11.7m-5.4-11.3l3.6 11.6m-5.4-11.2l3.6 11.6m-5.4-11.2l3.6 11.6m-5.4-11.3l3.6 11.6m-5.4-11.2l3.6 11.6m255.9-52.5l-19.4 4-3.6-11.7 19.4-3.9zm-3.6-11.6l3.6 11.6m-5.4-11.3l3.5 11.7m-5.3-11.3l3.5 11.6m-5.3-11.2l3.5 11.6m-5.3-11.3l3.5 11.7m-5.3-11.3l3.5 11.6m-5.4-11.2l3.6 11.6m-5.3-11.2l3.5 11.6m-5.4-11.3l3.6 11.6m-5.4-11.2l3.6 11.6m-5.4-11.2l3.6 11.6M788.2 56l-19.4 4-3.5-11.6 19.3-4zm-3.6-11.6l3.6 11.6m-5.4-11.2l3.6 11.6M781 45.2l3.6 11.6m-5.4-11.3l3.6 11.6m-5.4-11.2l3.6 11.6m-5.4-11.2l3.6 11.6m-5.4-11.3l3.6 11.7M772 47l3.6 11.6m-5.4-11.2l3.6 11.6m-5.4-11.3l3.6 11.7m-5.4-11.3l3.6 11.6m-219.8 45.2l-19.4 3.9-3.6-11.6 19.4-4zm-3.6-11.7l3.6 11.7M545 93.6l3.6 11.6M543.2 94l3.6 11.6m-5.4-11.2L545 106m-5.4-11.3l3.6 11.6m-5.4-11.2l3.5 11.6M536 95.5l3.5 11.6m-5.3-11.3l3.5 11.7m-5.3-11.3l3.5 11.6m-5.4-11.2l3.6 11.6m-5.4-11.3l3.6 11.7" fill="none" stroke-width=".75"/><g fill="none" stroke-width=".75"><path d="M444.5 180.7l28.9-5.9 3.5 11.6-28.8 5.9zm3.6 11.6l-3.6-11.6m5.4 11.3l-3.6-11.7m5.4 11.3l-3.6-11.6m5.4 11.2l-3.6-11.6m5.4 11.3l-3.6-11.7m5.4 11.3l-3.6-11.6m5.4 11.2l-3.6-11.6m5.4 11.2l-3.6-11.6m5.4 11.3l-3.6-11.6m5.4 11.2l-3.6-11.6m5.4 11.2l-3.6-11.6m5.4 11.3l-3.6-11.7m5.4 11.3l-3.6-11.6m5.4 11.2l-3.6-11.6m5.4 11.3l-3.5-11.7m5.3 11.3l-3.5-11.6m5.3 11.2l-3.5-11.6"/><path d="M452.7 164.6l12 38.8-12.4 2.5-12-38.8zm-12.4 2.5l12.4-2.5m-11.6 5l12.4-2.6m-11.7 5l12.4-2.6m-11.6 5l12.4-2.5m-11.7 4.9l12.4-2.5m-11.6 5l12.4-2.6m-8 17.1l12.5-2.5m-11.7 4.9l12.4-2.5m-11.7 4.9l12.5-2.5m-11.7 5l12.4-2.6m-11.7 5l12.4-2.5m-11.6 4.9l12.4-2.5"/></g><path fill="none" stroke-width=".75" d="M494.1 128.6l-20.2 15.9-40.5 8.3 21.1 68.4 40.4-8.3 27.1 6.2 470.4-96.6L964.5 32zm141-28.9l27.9 90.5M750.5 76l27.9 90.5m-304.5-22l20.7 67.5"/><path fill="none" stroke-width=".75" d="M608.5 105.1l17.8 23.8 16.8-3.4m-6.7 70.1l1.9-27.9 16.8-3.4m-483.6 65.9c-4.8-7.2-96.1 10.6-119.1 23.5-.6 6.5 2 13.3 2 13.3m121.8-25c-3.1-10.2-4.7-11.8-4.7-11.8m7.4 24c-.1 8.2-90.7 27.8-118.5 25.3-4.3-5.5-6-12.5-6-12.5m121.8-25c3.1 10.2 2.7 12.2 2.7 12.2"/><path fill="#C0F3FF" stroke-miterlimit="10" d="M162.9 232.9c-2.5-1.4-99.2 8.8-100.8 11.4-1.6 2.5 3.7 20.4 3.7 20.4s5.7 17.7 8.6 19.3c2.9 1.6 94-26.7 95.4-28.9 1.4-2.3-1.8-11.4-1.8-11.4s-2.5-9.3-5.1-10.8z"/><g stroke-width=".75"><path fill="#1DACE2" d="M164.7 244.3c1.5 4.8-1.5 9.5-6.6 10.6l-29.6 6.1c-5.1 1-10.4-2-11.9-6.8s1.5-9.5 6.6-10.6l29.6-6.1c5.1-1 10.5 2 11.9 6.8z"/><path fill="none" d="M130.6 260.6l-35.5 7.3c-5.1 1-4.5-3.2-6-8s-4.4-8.3.7-9.3l35.5-7.3"/></g><path fill="none" stroke-width=".75" d="M194.1 199.7l22.4 72.7M204.2 251l5.4-1.1-8.6-27.7-5.4 1.1zm94.6-24.4l-20.7 4.2-6-19.4 20.7-4.2z"/><path fill="none" stroke-width=".75" d="M821.5 61.4l-7.1-23.1L762.1 49l3.2 10.2-205.2 42.1-3.1-10.2-29.6 6.1 3.2 10.2-311.7 63.9-5.3 23.7-19.5 4.7 22.4 72.6 19.9-3.4 18.4 18.8 311.6-64 3.2 10.2 29.5-6.1-3.1-10.1 205.1-42.2 3.2 10.2 52.2-10.7-7.1-23.1"/><path fill="none" stroke-width=".75" d="M208.6 246.6l18.2-3.7-6.5-21.3-18.3 3.8zm4.3-23.4l6.5 21.2m-3.2-10.6l-10.9 2.2m247.4-71.4l20.7 10.2m3.5 11.6l-12.2 17m-31.3-50.6l10.9-2.2 2.4 7.9-10.9 2.2zm18.7 60.5l10.8-2.2 2.4 7.9-10.8 2.2z"/></g><g fill="none" stroke="#1DACE2" stroke-width="3" stroke-miterlimit="10"><path d="M957.4 8.9l42.1 136.7 35.5-7.3s2.7-25.1-11.2-70.4c-14-45.3-30.9-66.3-30.9-66.3l-35.5 7.3z"/><path d="M1088.5 5.6c-11.2-6.3-74 3.2-89.1 5.7-3.9-6.5-6.4-9.6-6.4-9.6L208 162.9l-5.6 34.9L1.6 245.4l3.5 31.7 15.3 29.3 204.4-35.5 25.2 28.6 785-161.2s.4-3.8.1-11c14.8-3.7 75.7-19.5 81.8-29.4 7-11.3-5.4-48-5.4-48s-10.3-37.1-23-44.3z"/></g></svg>