<svg xmlns="http://www.w3.org/2000/svg" width="1354" height="382.9" viewBox="0 0 1354 382.9"><path fill="#C0F3FF" stroke="#1DACE2" stroke-width="3" stroke-miterlimit="10" d="M1106.7 11.7L156 206.8c-47.3 9.7-91.7 18.8-138 46.6-24.9 15-15.8 48.8-9.6 68.8 6.2 20 17.7 53.3 48.3 56.9 56.9 6.6 101.3-2.5 148.6-12.2l950.8-195.2c174.6-35.8 196.2-125.4 196.2-125.4s-71-70.5-245.6-34.6z"/><path fill="#FFF254" d="M491.7 193.8l-140 28.8-12.3-39.7 140.1-28.8z"/><path fill="none" stroke="#1DACE2" stroke-width="3" stroke-miterlimit="10" d="M491.7 193.8l-140 28.8-12.3-39.7 140.1-28.8z"/><path fill="#FFF254" d="M520.9 288.4l-140.1 28.7-12.2-39.7 140-28.7z"/><path fill="none" stroke="#1DACE2" stroke-width="3" stroke-miterlimit="10" d="M520.9 288.4l-140.1 28.7-12.2-39.7 140-28.7z"/><path fill="#9376BC" d="M1163.6 27c-12.9 1.2-29.2 3.5-49.8 7.7l-92.9 19.1 15.5 50.2 142-29.1-14.8-47.9z"/><path fill="none" stroke="#1DACE2" stroke-width="3" stroke-miterlimit="10" d="M1163.6 27c-12.9 1.2-29.2 3.5-49.8 7.7l-92.9 19.1 15.5 50.2 142-29.1-14.8-47.9z"/><path fill="#FFF254" d="M1020.9 53.8L531 154.4l15.5 50.2 490-100.6-15.6-50.2zM550.6 218.1l15.5 50.2L1149 148.7c13-2.7 24-5.3 33.4-7.9l14.4-4.6-14.7-47.6-631.5 129.5z"/><path fill="none" stroke="#1DACE2" stroke-width="3" stroke-miterlimit="10" d="M1020.9 53.8L531 154.4l15.5 50.2 490-100.6-15.6-50.2zM550.6 218.1l15.5 50.2L1149 148.7c13-2.7 24-5.3 33.4-7.9l14.4-4.6-14.7-47.6-631.5 129.5z"/><g stroke="#1DACE2" stroke-width=".75"><path fill="none" d="M906.7 77.3l35.1 113.9M883.2 82.1L918.4 196M859.8 86.9l35.1 113.9M836.3 91.7l35.1 113.9m-58.6-109l35.1 113.9m-58.6-109.1l35.1 113.9m-58.6-109.1l35.1 113.9M742.3 111l35.1 113.9m-58.6-109.1L754 229.7m-58.6-109l35.1 113.9m-58.6-109.1L707 239.4m-58.6-109.1l35.1 113.9M930.2 72.4l35.1 114m149.6-151.9l15.5 50.2m-62.5-40.5l15.5 50.2m74.6-1l15.4 49.8m-38.9-44.9l15.5 50.1m-38.9-45.3l15.4 50.2m-38.9-45.4l15.4 50.2m-38.9-45.4l15.5 50.2m-58.7-109.1l35.2 113.9m-431.2-32.6L660 249m-58.6-109.1l35.1 114m-58.6-109.1L613 258.7m-58.6-109.1l35.2 113.9M457 158.8L498.4 293m-64.9-129.4l41.4 134.2M410 168.4l41.4 134.3m-64.9-129.4l41.4 134.2m-64.8-129.4l41.3 134.2"/><path fill="#FFF" d="M368.8 278.1l140-28.8 8.9 28.9 48.4-9.9-15.5-50.2 422.1-86.6 15.5 50.2 44.4-9.2-15.5-50.1 165.5-34-4.2-13.5-165.5 33.9-15.4-50.2-44.4 9.1 15.5 50.2-422.2 86.7-15.4-50.2-48.4 9.9 9 29L351.5 222l17.3 56.1m762-113.4l-28.8 6-3.6-11.7 28.9-5.9z"/><path d="M1127.3 153.1l3.5 11.6m-5.3-11.2l3.5 11.6m-5.3-11.3l3.5 11.7m-5.3-11.3l3.5 11.6m-5.3-11.2l3.5 11.6m-5.4-11.2l3.6 11.6m-5.4-11.3l3.6 11.7m-5.4-11.3l3.6 11.6m-5.4-11.2l3.6 11.6m-5.4-11.3l3.6 11.7m-5.4-11.3l3.6 11.6m-5.4-11.2l3.6 11.6m-5.4-11.2l3.6 11.6m-5.4-11.3l3.6 11.6m-5.4-11.2l3.6 11.6m-5.4-11.2l3.6 11.6m-5.4-11.3l3.6 11.7" fill="none"/><path fill="#FFF" d="M1092.1 39.2l-28.8 5.9-3.6-11.6 28.9-5.9z"/><path d="M1088.6 27.6l3.5 11.6m-5.3-11.3l3.5 11.7m-5.3-11.3l3.5 11.6m-5.3-11.2l3.5 11.6m-5.3-11.2l3.5 11.6m-5.4-11.3l3.6 11.7m-5.4-11.3l3.6 11.6m-5.4-11.2l3.6 11.6m-5.4-11.3l3.6 11.7m-5.4-11.3l3.6 11.6m-5.4-11.2l3.6 11.6m-5.4-11.3l3.6 11.7m-5.4-11.3l3.6 11.6m-5.4-11.2l3.6 11.6m-5.4-11.2l3.6 11.6m-5.4-11.3l3.6 11.7m-5.4-11.3l3.6 11.6" fill="none"/><path fill="#FFF" d="M837.6 224.9l-28.9 6-3.6-11.7 28.9-5.9z"/><path d="M834 213.3l3.6 11.6m-5.4-11.2l3.6 11.6m-5.4-11.2l3.6 11.6m-5.4-11.3l3.5 11.7m-5.3-11.3l3.5 11.6m-5.3-11.2l3.5 11.6m-5.3-11.3l3.5 11.7m-5.3-11.3l3.5 11.6m-5.3-11.2l3.5 11.6m-5.4-11.2l3.6 11.6m-5.4-11.3l3.6 11.6m-5.4-11.2l3.6 11.6m-5.4-11.2l3.6 11.6m-5.4-11.3l3.6 11.7m-5.4-11.3l3.6 11.6m-5.4-11.2l3.6 11.6m-5.4-11.3l3.6 11.7" fill="none"/><path fill="#FFF" d="M798.9 99.4l-28.9 5.9-3.6-11.6 28.9-5.9z"/><path d="M795.3 87.8l3.6 11.6m-5.4-11.2l3.5 11.6m-5.3-11.3l3.5 11.7m-5.3-11.3l3.5 11.6m-5.3-11.2l3.5 11.6m-5.3-11.3l3.5 11.7M784.4 90l3.6 11.6m-5.3-11.2l3.5 11.6m-5.4-11.3l3.6 11.7M779 91.1l3.6 11.6m-5.4-11.2l3.6 11.6m-5.4-11.2l3.6 11.6m-5.4-11.3l3.6 11.7m-5.4-11.3l3.6 11.6M770 93l3.6 11.6m-5.4-11.3l3.6 11.7m-5.4-11.3l3.6 11.6" fill="none"/><path fill="#FFF" d="M599.1 273.9l-28.9 5.9-3.5-11.6 28.8-5.9z"/><path d="M595.5 262.3l3.6 11.6m-5.4-11.3l3.6 11.7m-5.4-11.3l3.6 11.6m-5.4-11.2l3.6 11.6m-5.4-11.2l3.6 11.6m-5.4-11.3l3.6 11.7m-5.4-11.3l3.6 11.6m-5.4-11.2l3.6 11.6m-5.4-11.3l3.6 11.7m-5.4-11.3l3.6 11.6m-5.4-11.2l3.6 11.6m-5.4-11.2l3.6 11.6m-5.4-11.3l3.5 11.6m-5.3-11.2l3.5 11.6m-5.3-11.2l3.5 11.6m-5.4-11.3l3.6 11.7m-5.3-11.3l3.5 11.6" fill="none"/><path fill="#FFF" d="M560.4 148.4l-28.9 5.9-3.6-11.6 28.9-6z"/><path d="M556.8 136.7l3.6 11.7m-5.4-11.3l3.6 11.6m-5.4-11.2l3.6 11.6m-5.4-11.2l3.6 11.6m-5.4-11.3l3.6 11.6m-5.4-11.2l3.6 11.6M546 139l3.6 11.6m-5.4-11.3l3.6 11.7m-5.4-11.3l3.6 11.6m-5.4-11.2l3.5 11.6m-5.3-11.3l3.5 11.7m-5.3-11.3l3.5 11.6m-5.3-11.2l3.5 11.6m-5.3-11.2l3.5 11.6m-5.3-11.3l3.5 11.7m-5.4-11.3l3.6 11.6m-5.4-11.2l3.6 11.6" fill="none"/><path fill="#FFF" d="M1007.1 123.4l-28.9 5.9-3.6-11.6 28.9-5.9z"/><path d="M1003.5 111.8l3.6 11.6m-5.4-11.2l3.6 11.6m-5.4-11.3l3.6 11.6m-5.4-11.2l3.6 11.6m-5.4-11.2l3.6 11.6m-5.4-11.3l3.5 11.7m-5.3-11.3l3.5 11.6m-5.3-11.2l3.5 11.6m-5.3-11.3l3.5 11.7m-5.3-11.3l3.5 11.6m-5.4-11.2l3.6 11.6m-5.4-11.2l3.6 11.6m-5.4-11.3l3.6 11.6m-5.4-11.2l3.6 11.6m-5.4-11.2l3.6 11.6m-5.4-11.3L980 129m-5.4-11.3l3.6 11.6" fill="none"/><path fill="#FFF" d="M998.8 139.5l-11.9-38.8 12.4-2.5 11.9 38.8z"/><path fill="none" d="M1011.2 137l-12.4 2.5m11.7-4.9l-12.4 2.5m11.7-5l-12.5 2.6m11.7-5l-12.4 2.6m11.7-5l-12.5 2.5m11.7-4.9l-12.4 2.5m7.9-17.1l-12.4 2.6m11.7-5l-12.4 2.5m11.6-4.9l-12.4 2.5m11.7-5l-12.4 2.6m11.6-5l-12.4 2.6m11.7-5l-12.4 2.5"/><path fill="#FFF" d="M508.6 213.4l28.9-5.9 3.6 11.6-28.9 5.9z"/><path d="M512.2 225l-3.6-11.6m5.4 11.2l-3.6-11.6m5.4 11.3l-3.6-11.7m5.4 11.3l-3.6-11.6m5.4 11.2l-3.6-11.6m5.4 11.2l-3.6-11.6m5.4 11.3l-3.5-11.6m5.3 11.2l-3.5-11.6m5.3 11.2l-3.5-11.6m5.3 11.3l-3.5-11.7m5.3 11.3l-3.5-11.6m5.3 11.2l-3.5-11.6m5.3 11.3l-3.5-11.7m5.4 11.3l-3.6-11.6m5.4 11.2l-3.6-11.6m5.4 11.2l-3.6-11.6m5.4 11.3l-3.6-11.6" fill="none"/><path fill="#FFF" d="M516.9 197.2l11.9 38.8-12.4 2.6-12-38.8z"/><path fill="none" d="M504.4 199.8l12.5-2.6m-11.7 5l12.4-2.5m-11.7 4.9l12.5-2.5m-11.7 5l12.4-2.6m-11.7 5l12.4-2.6m-11.6 5l12.4-2.5m-7.9 17.1l12.4-2.6m-11.7 5l12.4-2.6m-11.6 5l12.4-2.5m-11.7 4.9l12.4-2.5m-11.6 5l12.4-2.6m-11.7 5l12.4-2.6M1230 6c99.3 14.5 109.2 43 109.2 43m-71.3 80.1c79.1-51.2 71.3-80.1 71.3-80.1"/><path fill="none" d="M1229.4 4l38.5 125.1.7 2.1M1163.5 26.7l14.9 48.2 19 61.5M987.6 60.7l9.9-2.1 6.7 21.9-9.9 2zm28.4 92l9.8-2 6.8 21.8-9.9 2.1zm-676.4 30.2l24.8 80.5-16.9 3.5 6.6 21.5-3.9 6.2-70.4 14.5-24.7-80.1 71.5-14.6 7 3.9 6.6 21.6 15.8-3.3M240.2 293l-109.5 22.5-10.8-35.1 109.5-22.5z"/><path fill="none" d="M1210.1 30.7s-14.4-12.8-96.3 4.1C1032 51.6 482.6 164.3 482.6 164.3l-3.1-10.2s-227.8 46.8-319.6 65.6c-91.7 18.8-118.6 37.1-118.6 37.1l34 110.2s34.3 5.7 126-13.1 319.6-65.6 319.6-65.6l-3.1-10.2s549.4-112.8 631.2-129.6c81.9-16.8 87.2-33.6 87.2-33.6s5.3-3.4-7.1-43.4-19-40.8-19-40.8z"/><path fill="none" d="M481.6 239.3L383 259.6l-8.3-26.8 98.7-20.2zm-141.9-56.1l41.2 133.7"/></g><path fill-rule="evenodd" clip-rule="evenodd" fill="#C0F3FF" d="M1228.9 2.6c-33.2-2.7-73.7-.9-122.2 9L156 206.8c-47.3 9.7-91.7 18.8-138 46.6-24.9 15-15.8 48.8-9.6 68.8 6.2 20 17.7 53.3 48.3 56.9 56.9 6.6 101.3-2.5 148.6-12.2l950.8-195.2c48.5-10 85.2-24.1 112.9-39.2L1228.9 2.6zm7.2 112.4s-5.3 16.8-87.2 33.6-631.2 129.6-631.2 129.6l3.1 10.2S293 335.2 201.2 354c-91.7 18.8-126 13.1-126 13.1l-34-110.2s26.9-18.3 118.6-37.1c91.7-18.8 319.6-65.6 319.6-65.6l3.1 10.2s549.4-112.8 631.2-129.6c81.9-16.8 96.3-4.1 96.3-4.1s6.6.9 18.9 41 7.2 43.3 7.2 43.3z"/><path fill="none" stroke="#1DACE2" stroke-width="3" stroke-miterlimit="10" d="M1106.7 11.7L156 206.8c-47.3 9.7-91.7 18.8-138 46.6-24.9 15-15.8 48.8-9.6 68.8 6.2 20 17.7 53.3 48.3 56.9 56.9 6.6 101.3-2.5 148.6-12.2l950.8-195.2c174.6-35.8 196.2-125.4 196.2-125.4s-71-70.5-245.6-34.6z"/><path fill="#1DACE2" d="M356 236.6l8.3 26.8.1-.1-24.8-80.5 16.4 53.8zm-1.9 51.8l-3.9 6.2-70.5 14.5-24.7-80 71.5-14.7 7 4 6.6 21.6 15.8-3.2-16.6-53.7L159.8 220c-91.7 18.8-118.6 37.1-118.6 37.1l34 110.2s34.3 5.7 126-13.1l179.5-36.9-16.5-53.7-16.8 3.4 6.7 21.4zM240.2 293l-109.5 22.5-10.8-35.1 109.5-22.5 10.8 35.1zm970.2-263.6s-8.3-7.4-48-3.7l34.5 112c37.1-12.1 40.2-21.8 40.2-21.8s5.4-3.4-7.3-44.4c-12.7-41.2-19.4-42.1-19.4-42.1z"/></svg>