<svg xmlns="http://www.w3.org/2000/svg" xmlns:xlink="http://www.w3.org/1999/xlink" width="1379.9" height="383.5" viewBox="0 0 1379.9 383.5"><path fill="#C0F3FF" stroke="#1DACE2" stroke-width="3" stroke-miterlimit="10" d="M50.3 381.1c-20.4-1-38.3-35.7-43.9-53.8-5.6-18.1-10-55.6 7.4-64.4 85.3-43 177-61.9 177-61.9S860.6 63.5 1088.4 16.8c227.8-46.8 289.9 28.9 289.9 28.9s-10.9 90.6-238.7 137.4c-227.8 46.8-897.5 184.3-897.5 184.3s-91.7 18.7-191.8 13.7z"/><path fill-rule="evenodd" clip-rule="evenodd" fill="#C0F3FF" stroke="#1DACE2" stroke-width="3" stroke-miterlimit="10" d="M1163.8 152.5l-140.1 28.8 2.6 8.3L605.2 276l-2.6-8.3-48.3 9.9 2.6 8.3-339.3 69.7s-57.9 11.9-127.4 11.9L56.8 259.4c61.2-26.8 119.1-38.7 119.1-38.7l339.3-69.6 2.6 8.3 48.3-9.9-2.6-8.3 421.1-86.5 2.6 8.3 140.1-28.8-7.2-23.4c-10.2 1.7-20.8 3.7-31.7 5.9C860.6 63.5 190.9 201 190.9 201s-91.7 18.8-177 61.9c-17.4 8.8-13 46.2-7.4 64.4 5.6 18.1 23.5 52.8 43.9 53.8 100.1 5 191.8-13.9 191.8-13.9S911.8 229.8 1139.7 183c11-2.2 21.4-4.6 31.4-7l-7.3-23.5z"/><g fill="#FFF" stroke="#30BBE8" stroke-miterlimit="10"><path d="M1120 10.3l7.4 24L987.3 63l-2.6-8.3-421.1 86.5 2.6 8.3-48.3 9.9-2.6-8.3L176 220.7s-57.9 11.9-119.1 38.7l33.4 108.2c69.4 0 127.4-11.9 127.4-11.9L556.9 286l-2.6-8.3 48.3-9.9 2.6 8.3 421.1-86.5-2.6-8.3 140.1-28.8 7.4 24M961.1 59.6l41.6 134.8m-439.1-53.2L605.2 276m-61.7-121.8l36.4 118.2"/><path d="M1073.8 100.3l-5.4-17.6-26.2 5.4-10.6-34.1-44.3 9-2.5-8.3-23.7 4.9 13.1 42.5-397.5 81.6-5.4-17.6-22.7 4.7 2.9 9.2-25.7 5.3 20.5 66.5 25.7-5.3 2.8 9.3 22.7-4.7-5.4-17.5L989.6 152l13.1 42.4 23.6-4.8-2.5-8.3 45.3-9.3-10.5-34.2 25.1-5.2-5.4-17.5z"/><path d="M943.9 140.5l-28.9 5.9-3.6-11.6 28.9-5.9zm-3.6-11.6l3.6 11.6m-5.4-11.2l3.6 11.6m-5.4-11.3l3.6 11.7m-5.4-11.3l3.6 11.6m-5.4-11.2l3.6 11.6m-5.4-11.3l3.6 11.7m-5.4-11.3l3.5 11.6m-5.3-11.2l3.5 11.6m-5.3-11.3l3.5 11.7m-5.3-11.3l3.5 11.6m-5.3-11.2l3.5 11.6m-5.3-11.2l3.5 11.6m-5.4-11.3l3.6 11.7m-5.4-11.3l3.6 11.6m-5.4-11.2l3.6 11.6m-5.4-11.3l3.6 11.7m-5.4-11.3l3.6 11.6m212.4-112.1l-28.9 5.9-3.6-11.6 28.9-5.9zm-3.6-11.6l3.6 11.6M1122 23l3.6 11.7m-5.4-11.3l3.6 11.6m-5.4-11.2l3.6 11.6m-5.4-11.2l3.6 11.6m-5.4-11.3l3.6 11.6m-5.4-11.2l3.5 11.6m-5.3-11.2l3.5 11.6m-5.3-11.3l3.5 11.7m-5.3-11.3l3.5 11.6m-5.3-11.2l3.5 11.6m-5.3-11.3l3.5 11.7m-5.4-11.3l3.6 11.6m-5.3-11.2l3.5 11.6m-5.4-11.2l3.6 11.6m-5.4-11.3l3.6 11.7m-5.4-11.3l3.6 11.6m68.9 123.9l-28.8 6-3.6-11.7 28.8-5.9zm-3.6-11.6l3.6 11.6m-5.4-11.2l3.6 11.6m-5.4-11.2l3.6 11.6m-5.4-11.3l3.6 11.7m-5.4-11.3l3.6 11.6m-5.4-11.2l3.6 11.6m-5.4-11.3l3.6 11.7m-5.4-11.3l3.6 11.6m-5.4-11.2l3.6 11.6m-5.4-11.2l3.6 11.6m-5.4-11.3l3.6 11.6m-5.4-11.2l3.6 11.6m-5.4-11.2l3.6 11.6m-5.4-11.3l3.6 11.7m-5.4-11.3l3.6 11.6m-5.4-11.2l3.6 11.6m-5.4-11.3l3.6 11.7m-95.6-49.4l-28.9 5.9-3.6-11.6 28.9-6zm-3.6-11.7l3.6 11.7m-5.4-11.3l3.5 11.6m-5.3-11.2l3.5 11.6m-5.3-11.3l3.5 11.7m-5.3-11.3l3.5 11.6m-5.4-11.2l3.6 11.6m-5.4-11.2l3.6 11.6m-5.4-11.3l3.6 11.7m-5.4-11.3l3.6 11.6m-5.4-11.2l3.6 11.6m-5.4-11.3l3.6 11.7m-5.4-11.3l3.6 11.6m-5.4-11.2l3.6 11.6m-5.4-11.2l3.6 11.6m-5.4-11.3l3.6 11.6m-5.4-11.2l3.6 11.6m-5.4-11.2l3.6 11.6"/><path d="M1034.7 136.8L1022.8 98l12.4-2.5 11.9 38.7zm12.4-2.6l-12.4 2.6m11.7-5l-12.4 2.6m11.6-5l-12.4 2.5m11.7-4.9l-12.4 2.5m11.6-4.9l-12.4 2.5m11.7-5l-12.4 2.6m7.9-17.1l-12.4 2.5m11.7-4.9l-12.4 2.5m11.6-5l-12.4 2.6m11.7-5l-12.4 2.5m11.6-4.9l-12.4 2.5m11.7-4.9l-12.4 2.5M544.5 210.6l28.9-5.9 3.6 11.6-28.9 5.9zm3.6 11.6l-3.6-11.6m5.4 11.3l-3.6-11.6m5.4 11.2l-3.6-11.6m5.4 11.2l-3.6-11.6m5.4 11.3l-3.6-11.7m5.4 11.3l-3.6-11.6m5.4 11.2l-3.6-11.6m5.4 11.3l-3.6-11.7m5.4 11.3l-3.6-11.6m5.4 11.2l-3.5-11.6m5.3 11.2l-3.6-11.6m5.4 11.3l-3.5-11.6m5.3 11.2l-3.5-11.6m5.3 11.2l-3.5-11.6m5.3 11.3l-3.5-11.7m5.4 11.3l-3.6-11.6m5.4 11.2l-3.6-11.6"/><path d="M552.7 194.5l12 38.8-12.4 2.5-12-38.8zm-12.4 2.5l12.4-2.5m-11.6 5l12.4-2.6m-11.7 5l12.4-2.6m-11.6 5l12.4-2.5m-11.7 4.9l12.4-2.5m-11.6 5l12.4-2.6m-7.9 17.1l12.4-2.5m-11.7 4.9l12.4-2.5m-11.7 5l12.5-2.6m-11.7 5l12.4-2.6m-11.7 5l12.5-2.5m-11.7 4.9l12.4-2.5m399.2-89.8l-32.4 6.6-7.7-24.9 32.4-6.7zM693.6 199l-101.2 20.7-7.7-24.9L686 174zm140.1-28.8l-115.4 23.7-7.7-24.9L826 145.3zM1256.1 3.4l39.5 128.3m-1019 68.4L318.2 335M420 170.7l41.5 134.8m373.4-162l2.2 7.1-8.9 1.8 3.6 11.6 12.8-2.6 2.2 7.1 55.2-11.3-7.9-25.9zm-39.1 8l7.6 24.9m-58.6-14.5l7.7 25m-31.2-20.1l7.7 24.9"/><path d="M677 195.8l14.7-3 1.9 6.2-14.7 3zm-3.6-11.6l14.7-3.1-2.1-7.1-14.8 3.1zm-22.5-3l7.7 25m-34.4-19.5l7.7 24.9m-115.3-56.2l39.6 128.3m407.7-140.2c7.4-1.5 11.6-8.3 9.5-15.2-2.1-6.9-9.8-11.2-17.2-9.7l7.7 24.9z"/></g><path fill="#FFF254" stroke="#1DACE2" stroke-width="3" stroke-miterlimit="10" d="M563.6 140.8L577 184l397.2-81.5-13.4-43.2z"/><path fill="#FFF254" d="M1002.7 194.4l-397.6 81.7-13.1-42.5L989.6 152z"/><path fill="none" stroke="#1DACE2" stroke-width="3" stroke-miterlimit="10" d="M1002.7 194.4l-397.6 81.7-13.1-42.5L989.6 152z"/><g stroke="#73D2EF" stroke-width=".75"><path fill="#FFF" d="M705.7 189.4l-28.9 5.9-3.6-11.6 28.9-5.9z"/><path d="M702.1 177.8l3.6 11.6m-5.4-11.2l3.6 11.6m-5.4-11.3l3.6 11.7m-5.4-11.3l3.6 11.6m-5.4-11.2l3.6 11.6m-5.4-11.3l3.5 11.7m-5.3-11.3l3.5 11.6m-5.3-11.2l3.6 11.6m-5.4-11.2l3.5 11.6m-5.3-11.3l3.5 11.6m-5.3-11.2l3.5 11.6m-5.3-11.2l3.5 11.6m-5.3-11.3l3.5 11.7m-5.4-11.3l3.6 11.6m-5.4-11.2l3.6 11.6m-5.4-11.3l3.6 11.7m-5.4-11.3l3.6 11.6" fill="none"/></g><defs><path id="a" d="M605.3 275.8l-13.4-43.2L989.1 151l13.3 43.2z"/></defs><clipPath id="b"><use xlink:href="#a" overflow="visible"/></clipPath><g clip-path="url(#b)" fill="none" stroke="#1DACE2" stroke-width=".75"><path d="M939.7 68.4l41.6 134.8m-65.1-130l41.6 134.9M892.7 78l41.6 134.9m-65-130l41.5 134.8m-65-130l41.6 134.8m-65.1-130l41.6 134.8m-65.1-130l41.6 134.9m-65.1-130.1L816.9 237m-65.1-130l41.6 134.8m-65-130l41.5 134.8m-65-130l41.5 134.8m-65-130L723 256.3m-65.1-130.1l41.6 134.9m-65.1-130L676 265.9m-65.1-130l41.6 134.8m-65.1-130L629 275.6"/></g><defs><path id="c" d="M974.2 102.1l-397.6 81.6-13.1-42.5 397.6-81.6z"/></defs><clipPath id="d"><use xlink:href="#c" overflow="visible"/></clipPath><g clip-path="url(#d)" fill="none" stroke="#1DACE2" stroke-width=".75"><path d="M939.4 64.1L981 198.9m-65.1-130l41.6 134.8m-65.1-130L934 208.5m-65.1-130l41.6 134.9M845.4 83.3L887 218.2m-65-130L863.5 223m-65-130l41.6 134.8M775 97.8l41.6 134.8m-65.1-130l41.6 134.9M728 107.4l41.6 134.9m-65.1-130l41.6 134.8m-65.1-130l41.6 134.8m-65-130l41.5 134.9m-65-130.1l41.6 134.9m-65.1-130l41.6 134.8m-65.1-130l41.6 134.8"/></g></svg>