<svg xmlns="http://www.w3.org/2000/svg" xmlns:xlink="http://www.w3.org/1999/xlink" width="1351.2" height="377.8" viewBox="0 0 1351.2 377.8"><path fill="#FFF" d="M1349 41.8s-71.3 102-214.3 131.4c-50.3 10.3-897.5 184.3-897.5 184.3s-143 29.4-191.6 14.8c-17.1-5.1-33.9-38.7-38.9-54.9-5-16.2-9.6-52.3 2.5-63.4 34.3-31.6 177.3-60.9 177.3-60.9S947.9 36.8 1084 8.8c136.1-27.9 265 33 265 33z"/><path fill="#FFF" stroke="#30BBE8" stroke-miterlimit="10" d="M1084 8.8c-136.1 28-897.5 184.3-897.5 184.3S43.5 222.4 9.2 254c-12.1 11.1-7.5 47.2-2.5 63.4 5 16.2 21.9 49.7 38.9 54.9 48.5 14.6 191.6-14.8 191.6-14.8s847.2-173.9 897.5-184.3c143-29.4 214.3-131.4 214.3-131.4s-128.9-60.9-265-33zM236.1 354c-1.4.3-142.5 29-189.5 14.9-14.7-4.4-31.1-35.9-36.2-52.2-5-16.4-8.8-50.4 1.6-60 33.2-30.6 174.1-59.8 175.5-60.1L1085 12.3c119.5-24.5 234.8 20.8 258 30.8-13.8 17.7-84.2 100.9-209.5 126.6L236.1 354z"/><path fill="none" stroke="#1DACE2" stroke-width="3" stroke-miterlimit="10" d="M1349 41.8s-71.3 102-214.3 131.4c-50.3 10.3-897.5 184.3-897.5 184.3s-143 29.4-191.6 14.8c-17.1-5.1-33.9-38.7-38.9-54.9-5-16.2-9.6-52.3 2.5-63.4 34.3-31.6 177.3-60.9 177.3-60.9S947.9 36.8 1084 8.8c136.1-27.9 265 33 265 33z"/><defs><path id="a" d="M858.5 55.2l20.5 66.5 60.2-12.4 2 6.5 66.5-13.6-2-6.5 13.7-2.8 3.1 10 23.4-4.8-23.6-76.5-163.8 33.6zm170.5 69.1l-13.7 2.8-2-6.5-66.5 13.6 2 6.5-60.2 12.4 20.5 66.5 163.7-33.6-23.5-76.3-23.4 4.8 3.1 9.8z"/></defs><use xlink:href="#a" overflow="visible" fill="#FFF254"/><use xlink:href="#a" overflow="visible" fill="none" stroke="#1DACE2" stroke-width="3" stroke-miterlimit="10"/><g stroke="#1DACE2" stroke-width=".75"><path fill="none" d="M1021.8 21.6l50.7 164.4"/><path fill="#FFF" d="M1005.3 95.7l2 6.5-66.5 13.6-2-6.4-60.2 12.3 9.7 31.4 60.2-12.4-2-6.4 66.4-13.7 2 6.5 13.7-2.8-9.6-31.4zm158.2-94.2l45.5 147.4"/><path fill="none" d="M885.7 144.6l50.4-10.4-4.3-14.1-50.5 10.3zm-27.6-89.4l50.7 164.4M672.7 93.3l50.7 164.4m-383.6-96.1L390.5 326M46.6 232.6L91 376.7"/><path d="M937.5 132.6l-28.8 5.9-3.6-11.6L934 121zM934 121l3.5 11.6m-5.4-11.3l3.6 11.7m-5.4-11.3l3.6 11.6m-5.4-11.2l3.6 11.6m-5.4-11.2l3.6 11.6m-5.4-11.3l3.6 11.6m-5.4-11.2l3.6 11.6m-5.4-11.2l3.6 11.6m-5.4-11.3l3.6 11.7m-5.4-11.3l3.6 11.6m-5.4-11.2l3.6 11.6m-5.4-11.3l3.6 11.7m-5.4-11.3l3.6 11.6m-5.4-11.2l3.6 11.6m-5.4-11.2l3.6 11.6m-5.4-11.3l3.6 11.6m-5.4-11.2l3.6 11.6m140.3-28.8l-28.8 5.9-3.6-11.6 28.8-5.9zm-3.6-11.6l3.6 11.6m-5.4-11.2l3.6 11.6m-5.4-11.3l3.6 11.6m-5.4-11.2l3.6 11.6m-5.4-11.2l3.6 11.6m-5.4-11.3l3.6 11.7m-5.4-11.3l3.6 11.6m-5.4-11.2l3.6 11.6M1031 101l3.6 11.7m-5.4-11.3l3.6 11.6m-5.4-11.2l3.6 11.6m-5.4-11.2l3.6 11.6m-5.4-11.3l3.6 11.6m-5.4-11.2l3.6 11.6m-5.4-11.2l3.6 11.6m-5.4-11.3l3.6 11.7m-5.4-11.3l3.6 11.6" fill="#FFF"/><path fill="none" d="M483.3 132.1L534 296.5m-50.7-164.4L534 296.5M186.5 193.1l50.7 164.4m450.2-148.1l-50.7 10.4-18.4-59.7 50.7-10.4z"/><path fill="none" d="M639.5 155.7l14.8-3 3.3 10.5-14.8 3zm25.5 31.5l-17.8 3.6-4.6-14.8 17.8-3.6zm0 0l-36 7.4 7.7 25.2 36-7.4zm11.4-13.5l19.9-4 3.5 11.6-19.8 4zm3.6 11.6l-3.6-11.6m5.4 11.3l-3.6-11.6m5.4 11.2L680 173m5.4 11.2l-3.6-11.6m5.4 11.3l-3.6-11.7m5.4 11.3l-3.6-11.6m5.4 11.2l-3.6-11.6m5.4 11.3l-3.6-11.7m1.9-.3l3.5 11.6m1.8-.4l-3.5-11.6m5.3 11.2l-3.5-11.6m5.3 11.3l-3.5-11.6M665 187.2l-10.7-34.5"/></g><defs><path id="b" d="M858.1 55.2l20.5 66.5 60.2-12.4 2 6.5 66.5-13.6-2-6.5 13.7-2.8 3.1 10 23.4-4.8-23.6-76.5-163.8 33.6zm170.5 69.1l-13.7 2.8-2-6.5-66.5 13.6 2 6.5-60.2 12.4 20.5 66.5 163.7-33.6-23.5-76.3-23.4 4.8 3.1 9.8z"/></defs><use xlink:href="#b" overflow="visible" fill="#FFF254"/><clipPath id="c"><use xlink:href="#b" overflow="visible"/></clipPath><g clip-path="url(#c)" fill="#FFF254" stroke="#1DACE2" stroke-miterlimit="10"><path d="M1116.1 2.6l51.5 164.3m-75-159.4l51.5 164.2m-74.9-159.4l51.4 164.3m-74.9-159.4l51.4 164.2M1022.2 22l51.4 164.3M998.7 26.9l51.5 164.2m-75-159.4l51.5 164.3M951.8 36.6l51.4 164.2M928.3 41.4l51.4 164.3M904.8 46.2l51.4 164.3M881.3 51.1l51.5 164.3m-75-159.5l51.5 164.3M834.4 60.8l51.4 164.3M810.9 65.6l51.4 164.3M787.4 70.5l51.4 164.2M763.9 75.3l51.5 164.3"/></g><use xlink:href="#b" overflow="visible" fill="none" stroke="#1DACE2" stroke-miterlimit="10"/></svg>