<svg xmlns="http://www.w3.org/2000/svg" width="1216.8" height="363.6" viewBox="0 0 1216.8 363.6"><path fill="#FFF" d="M1186 9.1c-7-4-79.2 1.5-79.2 1.5l-8.1-9.1s-22.8.8-76.1 11.7L125.2 197.4c-61.1 12.5-103 18.5-118.3 38-13.2 14.6 2 64.4 2 64.4s15.4 49.8 35.6 57.5c24.8 11.3 65.2.4 126.3-12.2L1068.2 161c53.2-10.9 73.8-19.1 73.8-19.1l1.8-11.2s66.8-23 70.7-29.2c3.9-6.2-7.3-47.6-7.3-47.6S1193 13.1 1186 9.1z"/><path fill-rule="evenodd" clip-rule="evenodd" fill="#C0F3FF" stroke="#1DACE2" stroke-width="3" stroke-miterlimit="10" d="M1186 9.1c-7-4-79.2 1.5-79.2 1.5l-8.1-9.1s-22.8.8-76.1 11.7L125.2 197.4c-61.1 12.5-103 18.5-118.3 38-13.2 14.6 2 64.4 2 64.4s15.4 49.8 35.6 57.5c24.8 11.3 65.2.4 126.3-12.2L1068.2 161c53.2-10.9 73.8-19.1 73.8-19.1l1.8-11.2s66.8-23 70.7-29.2c3.9-6.2-7.3-47.6-7.3-47.6S1193 13.1 1186 9.1zm-44.3 94.5c-1.4 18.8-42.7 29.4-79.8 37C971.2 159.3 300.6 297 300.6 297l-8.8-28.6-237.7 48.7L42.5 293l-3.7-25.7 237.7-48.8-8.8-28.6S938.3 52.2 1029 33.6c37.1-7.6 79.6-14.2 91.8 1.8 6.1 8 11.8 20.4 15.8 33.1 3.7 12.7 5.8 25.8 5.1 35.1z"/><path fill="#1DACE2" d="M322.3 217.9l-5.9 1.2 10.3 33.2 5.9-1.2L344 288l118.3-24.3-9.9-32.3-11.1 2.3-12.8-41.6 11-2.2-10.2-33.3-118.4 24.3z"/><path fill="#FFF254" d="M952.4 163.1L532 249.4l-14.5-47.1L937.9 116z"/><path fill="none" stroke="#1DACE2" stroke-width="3" stroke-miterlimit="10" d="M952.4 163.1L532 249.4l-14.5-47.1L937.9 116z"/><path fill="#FFF254" d="M933.9 103.1l-420.4 86.3-14.5-47.1L919.4 56z"/><path fill="none" stroke="#1DACE2" stroke-width="3" stroke-miterlimit="10" d="M933.9 103.1l-420.4 86.3-14.5-47.1L919.4 56z"/><path fill="#FFF254" d="M995.4 113.1l-32.2 6.6 12 38.8 75.9-15.6-14.5-47.1-43.7 9 2.5 8.3zm-53.3-61.8l12 38.8 32.2-6.6 2.6 8.3 63.4-13-14.5-47.1-95.7 19.6z"/><path fill="none" stroke="#1DACE2" stroke-width="3" stroke-miterlimit="10" d="M995.4 113.1l-32.2 6.6 12 38.8 75.9-15.6-14.5-47.1-43.7 9 2.5 8.3zm-53.3-61.8l12 38.8 32.2-6.6 2.6 8.3 63.4-13-14.5-47.1-95.7 19.6z"/><path fill="#1DACE2" d="M1037.8 31.8l33 107c34.5-7.5 69.6-17.8 70.9-35.1.7-9.4-1.4-22.5-5.3-35.2-4-12.7-9.7-25.1-15.8-33.1-11.1-14.8-48.1-10.4-82.8-3.6z"/><g stroke="#1DACE2" stroke-width=".75"><path fill="none" d="M1120.6 35.3c-12.1-16-54.7-9.4-91.8-1.8-90.7 18.6-761.3 156.3-761.3 156.3l8.8 28.6-237.6 48.8 3.7 25.7L54 317l237.7-48.8 8.8 28.6s670.6-137.7 761.3-156.3c37.1-7.6 78.4-18.2 79.8-37 .7-9.4-1.4-22.5-5.3-35.2-3.9-12.6-9.6-25-15.7-33z"/><g fill="#FFF"><path d="M98.1 356.1l-5 1-6.6-21.3 5-1zm49.6-10.2l-5 1.1-6.5-21.3 4.9-1.1z"/><path d="M87.8 348.4s-2.6-6.8-1.6-8.5c1.1-1.7 47.5-17.6 64.2-4.3"/><path d="M87.8 348.4s1.6 7 3.5 8.1c1.9 1.1 52.1-2.8 59.1-21"/></g><g fill="#FFF"><path d="M54.9 215.9l-5 1 6.5 21.3 5-1zm49.6-10.2l-5 1 6.6 21.3 5-1z"/><path d="M50.3 226.7s1.6 7 3.5 8.1c1.9 1.1 52.1-2.8 59.1-21"/><path d="M50.3 226.7s-2.6-6.8-1.6-8.5c1.1-1.7 47.5-17.6 64.2-4.3"/></g><path fill="#FFF" d="M259.6 221.9l-28.8 5.9-3.6-11.6 28.8-5.9z"/><path d="M256 210.3l3.6 11.6m-5.4-11.3l3.6 11.7m-5.4-11.3l3.6 11.6m-5.4-11.2l3.6 11.6m-5.4-11.2l3.6 11.6m-5.4-11.3l3.6 11.6m-5.4-11.2l3.6 11.6m-5.4-11.2l3.6 11.6m-5.4-11.3l3.6 11.7m-5.4-11.3l3.6 11.6M238 214l3.6 11.6m-5.4-11.3l3.6 11.7m-5.4-11.3l3.6 11.6m-5.4-11.2l3.6 11.6m-5.4-11.2l3.6 11.6m-5.4-11.3l3.6 11.6m-5.4-11.2l3.6 11.6" fill="none"/><path fill="#FFF" d="M278.6 283.4l-28.9 5.9-3.6-11.6 28.9-5.9z"/><path d="M275 271.8l3.6 11.6m-5.4-11.3l3.6 11.7m-5.4-11.3l3.6 11.6m-5.4-11.2l3.6 11.6m-5.4-11.3l3.6 11.7m-5.4-11.3l3.6 11.6m-5.4-11.2l3.6 11.6m-5.4-11.2L266 286m-5.4-11.3l3.6 11.6m-5.4-11.2l3.6 11.6m-5.4-11.2l3.6 11.6m-5.4-11.3l3.5 11.7m-5.3-11.3l3.5 11.6m-5.3-11.2l3.5 11.6m-5.3-11.3l3.5 11.7m-5.4-11.3l3.6 11.6m-5.4-11.2l3.6 11.6" fill="none"/><path fill="#FFF" d="M254.6 209.2l17.8-3.7 4 13-17.8 3.6zM274 272l17.8-3.7 3.9 13-17.7 3.6z"/><path fill="none" d="M828.1 74.8l33 107.1M804.6 79.6l33 107.1M781.1 84.4l33 107.1M757.6 89.2l33 107.1M734.1 94l33.1 107.2M710.7 98.9l33 107.1m-56.5-102.3l33 107.1m-56.5-102.3l33 107.1m-56.5-102.3l33 107.1m-56.5-102.3l33 107.2m248.8-165l33 107.1m34.3-120.9l33 107.1M983.5 42.8l33 107.2m-16.2-110.6l33 107.1M1018 35.8l33.1 107.1M593.2 123l33.1 107.1m-56.5-102.3l33 107.1m-56.5-102.3l33 107.1m-56.5-102.3l33 107.2m-56.5-102.3l33 107.1"/><path fill="#FFF" d="M565.3 255l-28.8 5.9-3.6-11.6 28.9-6z"/><path d="M561.8 243.3l3.5 11.7m-5.4-11.3l3.6 11.6m-5.4-11.2l3.6 11.6m-5.4-11.3l3.6 11.7m-5.4-11.3l3.6 11.6m-5.4-11.2l3.6 11.6m-5.4-11.2l3.6 11.6m-5.4-11.3l3.6 11.6m-5.4-11.2l3.6 11.6m-5.4-11.2l3.6 11.6m-5.4-11.3l3.6 11.7m-5.4-11.3l3.6 11.6m-5.4-11.2l3.6 11.6m-5.4-11.3l3.6 11.7m-5.4-11.3l3.6 11.6m-5.4-11.2l3.6 11.6m-5.4-11.2l3.6 11.6" fill="none"/><path fill="#FFF" d="M528.7 136.2l-28.8 5.9-3.6-11.6 28.8-5.9z"/><path d="M525.1 124.6l3.6 11.6m-5.4-11.2l3.6 11.6m-5.4-11.3l3.6 11.7m-5.4-11.3l3.6 11.6m-5.4-11.2l3.6 11.6m-5.4-11.3l3.6 11.7m-5.4-11.3l3.6 11.6m-5.4-11.2l3.6 11.6m-5.4-11.2l3.6 11.6m-5.4-11.3l3.6 11.6m-5.4-11.2l3.6 11.6m-5.4-11.2l3.6 11.6m-5.4-11.3l3.6 11.7m-5.4-11.3l3.6 11.6m-5.4-11.2l3.6 11.6m-5.4-11.3l3.6 11.7m-5.4-11.3l3.6 11.6" fill="none"/><path fill="#FFF" d="M619.4 243.9l-28.9 5.9-3.6-11.6 28.9-6z"/><path d="M615.8 232.2l3.6 11.7m-5.4-11.3l3.6 11.6m-5.4-11.2l3.6 11.6m-5.4-11.2L614 245m-5.4-11.3l3.6 11.6m-5.4-11.2l3.6 11.6m-5.4-11.2l3.6 11.6m-5.4-11.3l3.6 11.7m-5.4-11.3l3.5 11.6m-5.3-11.2l3.5 11.6m-5.3-11.3l3.5 11.7m-5.3-11.3l3.5 11.6m-5.3-11.2l3.5 11.6m-5.4-11.2l3.6 11.6m-5.4-11.3l3.6 11.6m-5.4-11.2l3.6 11.6m-5.4-11.2l3.6 11.6" fill="none"/><path fill="#FFF" d="M582.8 125.1l-28.9 5.9-3.6-11.6 28.9-5.9z"/><path d="M579.2 113.5l3.6 11.6m-5.4-11.2l3.6 11.6m-5.4-11.3l3.6 11.7m-5.4-11.3l3.6 11.6M572 115l3.6 11.6m-5.4-11.2l3.5 11.6m-5.3-11.3l3.5 11.6m-5.3-11.2l3.5 11.6m-5.3-11.2l3.5 11.6m-5.3-11.3l3.5 11.6m-5.4-11.2l3.6 11.6m-5.4-11.2l3.6 11.6m-5.4-11.3l3.6 11.7m-5.4-11.3l3.6 11.6m-5.4-11.2l3.6 11.6m-5.4-11.2l3.6 11.6m-5.4-11.3l3.6 11.6" fill="none"/><path fill="#FFF" d="M803.2 206.1l-28.9 6-3.6-11.7 28.9-5.9z"/><path d="M799.6 194.5l3.6 11.6m-5.4-11.2l3.6 11.6m-5.4-11.3l3.6 11.7m-5.4-11.3l3.6 11.6m-5.4-11.2l3.6 11.6m-5.4-11.2l3.6 11.6m-5.4-11.3l3.5 11.7m-5.3-11.3l3.5 11.6m-5.3-11.2l3.5 11.6m-5.3-11.3l3.5 11.7m-5.3-11.3l3.5 11.6m-5.3-11.2l3.5 11.6M778 199l3.5 11.6m-5.3-11.3l3.5 11.6m-5.4-11.2l3.6 11.6m-5.4-11.2l3.6 11.6m-5.4-11.3l3.6 11.7" fill="none"/><path fill="#FFF" d="M766.6 87.4l-28.9 5.9-3.6-11.6 28.9-5.9z"/><path d="M763 75.8l3.6 11.6m-5.4-11.3l3.6 11.7m-5.4-11.3l3.6 11.6m-5.4-11.2l3.6 11.6m-5.4-11.3l3.6 11.7M754 77.6l3.5 11.6M752.2 78l3.5 11.6m-5.3-11.2l3.5 11.6m-5.3-11.3l3.5 11.6m-5.4-11.2l3.6 11.6m-5.4-11.2l3.6 11.6m-5.4-11.3l3.6 11.7m-5.4-11.3l3.6 11.6m-5.4-11.2l3.6 11.6m-5.4-11.3l3.6 11.7m-5.4-11.3l3.6 11.6m-5.4-11.2l3.6 11.6" fill="none"/><path fill="#FFF" d="M857.2 195l-28.8 6-3.6-11.7 28.8-5.9z"/><path d="M853.6 183.4l3.6 11.6m-5.4-11.2l3.6 11.6m-5.4-11.2l3.6 11.6m-5.4-11.3l3.6 11.6m-5.4-11.2l3.6 11.6m-5.4-11.2l3.6 11.6m-5.4-11.3l3.6 11.7M841 186l3.6 11.6m-5.4-11.2l3.6 11.6m-5.4-11.3l3.6 11.7m-5.4-11.3l3.6 11.6m-5.4-11.2l3.6 11.6m-5.4-11.2l3.6 11.6m-5.4-11.3l3.6 11.6m-5.4-11.2l3.6 11.6m-5.4-11.2l3.6 11.6m-5.4-11.3l3.6 11.7" fill="none"/><path fill="#FFF" d="M820.6 76.3l-28.9 5.9-3.5-11.6 28.8-5.9z"/><path d="M817 64.7l3.6 11.6M815.2 65l3.6 11.7m-5.4-11.3L817 77m-5.4-11.2l3.6 11.6m-5.4-11.2l3.6 11.6M808 66.5l3.6 11.6m-5.4-11.2l3.6 11.6m-5.4-11.2l3.6 11.6m-5.4-11.3l3.6 11.7M800.8 68l3.6 11.6M799 68.4l3.6 11.6m-5.4-11.3l3.6 11.7m-5.4-11.3l3.6 11.6m-5.4-11.2l3.6 11.6m-5.4-11.2l3.6 11.6M790 70.2l3.6 11.6m-5.4-11.2l3.5 11.6" fill="none"/><path fill="#FFF" d="M988.8 91.8l-2.5-8.3-32.2 6.6-12-38.8-22.7 4.7 14.5 47.1-420.1 86.2-6.8-22.1-24.7 5-7.7-24.9-45.3 9.3 33 107.1 45.4-9.3-7.7-24.9 24.6-5.1-6.8-22.1L937.9 116l14.5 47.1 22.7-4.6-11.9-38.8 32.2-6.6-2.6-8.3 63.5-13.1-4-12.9z"/><path fill="none" d="M952.4 163.1l11.9-2.4-10.6-34.2-11.8 2.5zm-22.5-72.9l11.9-2.5-10.6-34.1-11.8 2.4zM441.3 233.7L474 227l-12.8-41.6-32.7 6.7zm-164.9-15.2l15.4 49.8"/><path fill="#FFF" d="M982.3 105.9l-28.9 5.9-3.6-11.6 28.9-6z"/><path d="M978.7 94.2l3.6 11.7m-5.4-11.3l3.6 11.6M975.1 95l3.6 11.6m-5.4-11.2l3.6 11.6m-5.4-11.3l3.6 11.6m-5.4-11.2l3.6 11.6m-5.4-11.2l3.5 11.6m-5.3-11.3l3.5 11.7m-5.3-11.3l3.5 11.6m-5.3-11.2l3.5 11.6m-5.3-11.3l3.5 11.7m-5.3-11.3l3.5 11.6M957 98.7l3.6 11.6m-5.4-11.2l3.6 11.6m-5.4-11.3L957 111m-5.4-11.2l3.6 11.6m-5.4-11.2l3.6 11.6" fill="none"/><path fill="#FFF" d="M475.9 197.8l28.9-5.9 3.6 11.6-28.9 5.9z"/><path d="M479.5 209.4l-3.6-11.6m5.4 11.3l-3.6-11.7m5.4 11.3l-3.6-11.6m5.4 11.2l-3.6-11.6m5.4 11.3l-3.6-11.7m5.4 11.3L485 196m5.3 11.2l-3.5-11.6m5.3 11.3l-3.5-11.7m5.3 11.3l-3.5-11.6m5.3 11.2l-3.5-11.6m5.3 11.2l-3.5-11.6m5.4 11.3l-3.6-11.7m5.4 11.3l-3.6-11.6m5.4 11.2l-3.6-11.6m5.4 11.3l-3.6-11.7m5.4 11.3l-3.6-11.6m5.4 11.2l-3.6-11.6" fill="none"/><path fill="#FFF" d="M484.2 181.7l11.9 38.8-12.4 2.5-11.9-38.8z"/><path fill="none" d="M471.8 184.2l12.4-2.5m-11.7 5l12.4-2.6m-11.7 5l12.5-2.6m-11.7 5l12.4-2.5m-11.7 4.9l12.5-2.5m-11.7 5l12.4-2.6m-7.9 17.1l12.4-2.5m-11.7 4.9l12.4-2.5m-11.6 4.9l12.4-2.5m-11.7 5l12.4-2.6m-11.6 5l12.4-2.5m-11.7 4.9l12.4-2.5m-66.8-63.9l33 107.1m575.5-232l33 107.1m-759.9 42.1l11.4 37-5.9 1.2 10.3 33.2 5.9-1.2L344 288"/></g><path fill="none" stroke="#1DACE2" stroke-width="2.5" d="M1186 9.1c-7-4-79.2 1.5-79.2 1.5l-8.1-9.1s-22.8.8-76.1 11.7L125.2 197.4c-61.1 12.5-103 18.5-118.3 38-13.2 14.6 2 64.4 2 64.4s15.4 49.8 35.6 57.5c24.8 11.3 65.2.4 126.3-12.2L1068.2 161c53.2-10.9 73.8-19.1 73.8-19.1l1.8-11.2s66.8-23 70.7-29.2c3.9-6.2-7.3-47.6-7.3-47.6S1193 13.1 1186 9.1z"/><path fill="#35E53D" d="M913 107.4l-70.4 14.5-14.5-47.1 70.4-14.5z"/><path fill="none" stroke="#1DACE2" stroke-width="3" stroke-miterlimit="10" d="M913 107.4l-70.4 14.5-14.5-47.1 70.4-14.5z"/><path fill="#35E53D" d="M931.7 167.8l-70.5 14.5-14.6-47.5 70.4-14.5z"/><path fill="none" stroke="#1DACE2" stroke-width="3" stroke-miterlimit="10" d="M931.7 167.8l-70.5 14.5-14.6-47.5 70.4-14.5z"/></svg>