<svg xmlns="http://www.w3.org/2000/svg" width="38" height="47" viewBox="0 0 38 47"><title>Combined Shape Copy 12</title><path d="M0 19C0 8.507 8.507 0 19 0s19 8.507 19 19c0 5.655-2.47 10.733-6.391 14.214C27.943 37.948 21.007 46.52 18.85 46.52c-2.344 0-10.327-10.118-13.63-14.44A18.935 18.935 0 0 1 0 19z" fill="#303a4f"/><path d="M16.39 11c-.7 0-1.27.56-1.27 1.25v5.82l.58-.39c.47-.31.83-.29 1.07.06.24.35.12.69-.35 1l-1.3.86v1.16c0 .69.57 1.25 1.27 1.25H29.3c.7 0 1.27-.56 1.27-1.25v-8.51c0-.69-.57-1.25-1.27-1.25zm-2.53 7.9v-1.84c0-1.05-.59-1.58-1.77-1.58H8.78c-1.18 0-1.78.53-1.78 1.58v6.46c0 .56.22.83.65.83.43 0 .65-.27.65-.83v-5.63h.31v9.39h1.61v-3.85h.42v3.85h1.61v-9.39h.31v2c0 .55.22.83.65.83.13 0 .24-.03.33-.09v.01l1.58-1.04v-1.53zm-3.45-3.59c-.38 0-.72-.18-1-.56-.28-.37-.42-.79-.42-1.26s.14-.86.42-1.19c.27-.33.61-.49 1-.49s.72.16 1 .49c.28.33.42.72.42 1.19s-.14.89-.42 1.26c-.28.38-.61.56-1 .56z" fill="#fefefe"/></svg>