<svg xmlns="http://www.w3.org/2000/svg" width="38" height="47" viewBox="0 0 38 47"><title>Combined Shape Copy 13</title><path d="M0 19C0 8.507 8.507 0 19 0s19 8.507 19 19c0 5.655-2.47 10.733-6.391 14.214C27.943 37.948 21.007 46.52 18.85 46.52c-2.344 0-10.327-10.118-13.63-14.44A18.935 18.935 0 0 1 0 19z" fill="#303a4f"/><path d="M14.28 13.12c.31.08.61.18.89.28.28.12.57.24.88.37.31.14.6.28.87.42.25.14.52.31.81.5l3.17 2.09c.49 0 .92-.23 1.29-.68.37-.44.55-.89.55-1.35 0-.58-.84-1.26-2.53-2.04s-3.36-1.18-4.99-1.18c-.89 0-1.68.08-2.35.23-.66.17-1 .32-1.01.44 0 .11.09.2.26.28zm.98 7.65c-.46-.54-.99-1.35-1.59-2.45-.62-1.09-1.08-2.05-1.37-2.88l-.91-2.67c-.47.55-.71 1.69-.71 3.43 0 1.57.34 3.15 1.02 4.74.68 1.61 1.4 2.41 2.14 2.41.58 0 1.07-.17 1.48-.53.41-.36.62-.72.62-1.09 0-.08-.22-.4-.68-.96zM24.46 32h-1.54v-7.1l-3.01-2.89a.883.883 0 0 0-.64-.26l-.27.02-1.1.24-.48 1.71c-.22.68-.83 1.02-1.83 1.02-.37 0-.57.09-.6.29 0 .89-.23 1.53-.69 1.91-.48.44-1.04.66-1.69.66-1.09 0-2.12-.89-3.11-2.65-1-1.75-1.5-3.54-1.5-5.36 0-1.36.19-2.56.55-3.59l.61-1.19.71-1.34c.12-1.03.32-1.69.61-1.98.24-.27.85-.46 1.86-.58.21-.12.4-.25.59-.37.01-.01.25-.14.7-.38.45-.23 1.07-.48 1.85-.75.78-.28 1.86-.41 3.22-.41.91 0 1.81.12 2.69.35.88.24 2.04.74 3.47 1.49 1.43.74 2.14 1.67 2.14 2.78 0 .57-.19 1.06-.58 1.44-.39.39-.92.62-1.59.69-.48 0-.72.17-.72.5 0 .84-.22 1.47-.65 1.9-.44.4-1.09.6-1.97.6-.22.02-.33.1-.34.24l-.24 1.38.02.26c.01.08.12.21.33.39l3.2 3.07z" fill="#fefefe"/></svg>