<svg width="38" height="47" viewBox="0 0 38 47" xmlns="http://www.w3.org/2000/svg"><title>pin bar</title><g fill="none" fill-rule="evenodd"><path d="M33.854 30.258a18.766 18.766 0 0 0 3.844-11.409C37.698 8.439 29.259 0 18.849 0S0 8.439 0 18.849a18.77 18.77 0 0 0 3.844 11.41c1.014 1.363 12.165 16.263 15.005 16.263 2.84 0 13.99-14.9 15.005-16.264z" fill="#303A4F"/><path d="M13 29h6v-8s-7.959-.691-8-8c.071-4.732 1-5 1-5h13.5s1.525.25 1.5 5c-.084 7.596-8 8-8 8v8h5.5" stroke="#FFF" stroke-width="2"/><path fill="#FFF" d="M14 12h13v2H14z"/></g></svg>