<svg xmlns="http://www.w3.org/2000/svg" width="61" height="47" viewBox="0 0 61 47"><title>photo icon</title><defs><linearGradient id="a" gradientUnits="userSpaceOnUse" x1="1019" y1="1294.5" x2="948.6" y2="1294.5"><stop stop-color="#fbb12f" offset="0"/><stop stop-color="#fcbb41" offset="1"/></linearGradient></defs><path d="M1014.3 1281h-15.8l-1.4-6.6c-.5-2-2.3-3.4-4.4-3.4h-7.6c-2.1 0-3.9 1.4-4.4 3.4l-1.4 6.6h-16.4c-2.4 0-3.9 1.6-3.9 4v28.4c0 2.4 1.5 4.6 3.9 4.6h51.3c2.4 0 4.8-2.2 4.8-4.6V1285c.1-2.4-2.3-4-4.7-4z" fill="url(#a)" transform="translate(-959 -1271)"/><path d="M15 28c0-7.732 6.268-14 14-14s14 6.268 14 14-6.268 14-14 14-14-6.268-14-14z" fill="#fff"/><path d="M21 28a8 8 0 1 1 16 0 8 8 0 0 1-16 0zM16.5 5h-8C7.7 5 7 4.3 7 3.5S7.7 2 8.5 2h8c.8 0 1.5.7 1.5 1.5S17.3 5 16.5 5zm31.4-2h.6C50.9 3 52 4.9 52 7.3V9h-8V7.3C44 4.9 45.5 3 47.9 3z" fill="#fff354"/></svg>