<svg xmlns="http://www.w3.org/2000/svg" width="71" height="68" viewBox="0 0 71 68"><title>path icon</title><path d="M9.116 32a26.387 26.387 0 0 1 6.285-14.771l-5.857-5.856 2.829-2.829 5.856 5.857A26.387 26.387 0 0 1 33 8.116V0h4v8.042a26.378 26.378 0 0 1 15.227 5.903l5.4-5.4 2.829 2.828-5.326 5.325A26.397 26.397 0 0 1 61.884 32H71v4h-9.042A26.387 26.387 0 0 1 55.6 51.771l4.857 4.856-2.829 2.829-4.856-4.857A26.387 26.387 0 0 1 37 60.96V68h-4v-7.116a26.397 26.397 0 0 1-15.302-6.754l-5.325 5.326-2.829-2.829 5.4-5.4A26.378 26.378 0 0 1 9.043 36H0v-4zm48.747 0a22.412 22.412 0 0 0-5.565-12.47L39.828 32zM49.38 16.79A22.39 22.39 0 0 0 37 12.05v17.122zM30.17 36H13.05a22.39 22.39 0 0 0 4.742 12.38zm-9.64 15.298A22.412 22.412 0 0 0 33 56.863V38.828zm32.23-2.365A22.4 22.4 0 0 0 57.952 36H39.828zM37 56.951a22.4 22.4 0 0 0 12.933-5.19L37 38.829zM18.238 20.067A22.4 22.4 0 0 0 13.138 32h17.034zM33 12.137a22.4 22.4 0 0 0-11.933 5.101L33 29.172z" fill="#ffb42e"/><path d="M35 39a5 5 0 1 0 0-10 5 5 0 0 0 0 10zm17-20c1.1 0 2-.9 2-2s-.9-2-2-2-2 .9-2 2 .9 2 2 2zm8 17c1.1 0 2-.9 2-2s-.9-2-2-2-2 .9-2 2 .9 2 2 2zm-49 0a2 2 0 1 0 0-4 2 2 0 0 0 0 4zm24-24a2 2 0 1 0 0-4 2 2 0 0 0 0 4zm0 49a2 2 0 1 0 0-4 2 2 0 0 0 0 4zm18-7a2 2 0 1 0 0-4 2 2 0 0 0 0 4zM18 19a2 2 0 1 0 0-4 2 2 0 0 0 0 4zm-1 35a2 2 0 1 0 0-4 2 2 0 0 0 0 4z" fill="#f8e81c"/><path d="M35 37c1.66 0 3-1.34 3-3s-1.34-3-3-3-3 1.34-3 3 1.34 3 3 3z" fill="#fff"/></svg>