<svg xmlns="http://www.w3.org/2000/svg" width="78" height="46.5" viewBox="0 0 78 46.5"><title>ship icon</title><path d="M12.08 42.21C6.2 37.9 5.5 30.32 5.5 22c.12 0 65.59.07 66 0 0 12.95-5.68 17.98-10.24 20.21-.93.23-2.78.17-2.78.17l-3.53 1.87-3.14-.5-4.3-2.33-2.72-.24-3.85 2.68-3.94.06-3.99-3.28-3.05.01-3.5 3.07-4.35.49-4.64-3.32-3.64.31" fill="#ffb42e"/><path d="M16.5 31.5a2.5 2.5 0 1 1 5 0 2.5 2.5 0 0 1-5 0zm10 0a2.5 2.5 0 1 1 5 0 2.5 2.5 0 0 1-5 0zm10 0a2.5 2.5 0 1 1 5 0 2.5 2.5 0 0 1-5 0zm10 0a2.5 2.5 0 1 1 5 0 2.5 2.5 0 0 1-5 0zm10 0a2.5 2.5 0 1 1 5 0 2.5 2.5 0 0 1-5 0z" fill="#fff"/><path d="M15.5 10h42l9 12h-58z" fill="#fff354"/><path d="M1.5 41.09s2.16 3.23 6.14 3.1c3.97-.12 4.05-3.12 7.92-3.12s3.64 3.15 8.07 3.15S27.75 41 31.13 41c3.37 0 3.6 3.15 7.49 3.15s4.24-3 7.45-3 3.27 2.98 7.65 2.98c4.38 0 4.58-3.02 7.81-3.02 3.22 0 2.91 2.96 7.05 2.96 4.15 0 5.68-2.9 7.55-2.9" fill-opacity="0" fill="#fff" stroke-dasharray="0" stroke="#fff354" stroke-miterlimit="50" stroke-width="3"/><path d="M17.5 10V0h4l6 10zm10 0l3-10h15l9 10z" fill="#ffb42e"/></svg>